<svg width="40" height="59" viewBox="0 0 40 59" fill="none" xmlns="http://www.w3.org/2000/svg">
<path d="M13.5146 5.40918C13.5146 5.40918 22.4785 7.18328 25.3264 8.53052C29.9884 10.7315 32.136 13.0725 31.0088 18.208C30.7353 19.4486 30.3752 21.1159 29.9684 22.9967L28.4877 29.7797C27.694 33.3612 26.8937 36.8227 26.3001 39.0437C25.6532 41.4647 25.1463 44.9862 25.98 46.8203C26.8537 48.7345 27.1805 51.1355 27.6407 53.063C28.1009 54.9905 30.7554 55.4641 30.3952 56.958C30.035 58.4453 28.1876 57.6984 26.5869 57.1715C24.5727 56.5112 24.4993 56.0243 23.2054 53.1231C21.2246 48.6611 18.7035 49.7883 18.27 46.5269C17.8898 43.6456 21.2846 43.1988 21.1045 39.5105C20.9044 35.3087 20.3909 28.4524 20.9445 25.5112C21.9382 20.2022 23.4055 18.7149 23.6923 17.8812C24.2926 16.1004 21.5314 16.3806 17.5964 16.2072C12.9744 16.0004 8.65918 14.9933 8.65918 14.9933L13.5146 5.40918Z" fill="white"/>
<path d="M29.2155 58.5186C28.4552 58.5186 27.5882 58.2252 26.7345 57.945L26.3743 57.825C24.22 57.118 23.8999 56.391 22.8461 53.9967L22.586 53.4031C21.6656 51.3289 20.6452 50.5819 19.7448 49.9216C18.771 49.208 17.8506 48.5343 17.6039 46.6202C17.3838 44.9394 18.2508 43.9057 19.0111 42.9919C19.7848 42.0715 20.5184 41.1978 20.4384 39.5505C20.4051 38.8702 20.365 38.1165 20.3184 37.3228C20.0916 33.141 19.8048 27.9321 20.285 25.391C21.0653 21.2159 22.1525 19.3084 22.7327 18.288C22.8861 18.0145 23.0062 17.8011 23.0529 17.6677C23.1062 17.501 23.0996 17.4209 23.0929 17.4076C22.9128 17.0541 20.8186 16.9941 19.4313 16.9607C18.8511 16.9474 18.2308 16.9274 17.5772 16.9007C12.9485 16.694 8.69335 15.7135 8.51995 15.6735C8.15312 15.5868 7.91968 15.22 8.00639 14.8465C8.09309 14.4797 8.45992 14.2462 8.83341 14.3329C8.87343 14.3396 13.1419 15.3267 17.6439 15.5268C18.2908 15.5535 18.9044 15.5735 19.4713 15.5868C21.9457 15.6535 23.5798 15.6935 24.2267 16.6206C24.5135 17.0274 24.5535 17.5276 24.3601 18.1079C24.2734 18.368 24.12 18.6348 23.9332 18.9683C23.393 19.922 22.3792 21.7028 21.6389 25.6445C21.1921 28.0255 21.4855 33.3611 21.6923 37.2495C21.7323 38.0431 21.779 38.7968 21.8123 39.4838C21.919 41.6647 20.8919 42.8919 20.0649 43.879C19.3446 44.7394 18.8244 45.3596 18.9644 46.4468C19.1378 47.774 19.6714 48.1675 20.5585 48.8144C21.5456 49.5348 22.7727 50.4351 23.8465 52.8495L24.1133 53.4498C25.1338 55.7641 25.2405 56.0109 26.8145 56.5244L27.1813 56.6445C28.015 56.9246 29.1622 57.3114 29.569 57.0847C29.6024 57.0647 29.6824 57.0246 29.7357 56.7979C29.8091 56.4844 29.5156 56.211 28.8354 55.6574C28.1351 55.0905 27.2613 54.3835 26.9812 53.2297C26.8612 52.7161 26.7411 52.1626 26.6277 51.5956C26.3076 50.0483 25.9741 48.4476 25.3672 47.107C24.4735 45.1462 24.927 41.5647 25.6473 38.8635C26.1609 36.956 26.8745 33.9347 27.8283 29.6329L29.629 21.3693C29.9025 20.0954 30.1493 18.9683 30.3427 18.0612C31.4098 13.1858 29.3022 11.1649 25.0404 9.15071C22.3059 7.85682 13.4754 6.10273 13.3887 6.08272C13.0152 6.00935 12.7751 5.6492 12.8485 5.2757C12.9218 4.90221 13.2887 4.66211 13.6555 4.73547C14.0223 4.80884 22.7394 6.54292 25.6273 7.91017C30.3027 10.1178 32.9438 12.6322 31.6899 18.3547C31.4898 19.2551 31.2497 20.3822 30.9763 21.6561L29.1688 29.9263C28.2084 34.2548 27.4881 37.2895 26.9746 39.217C26.3409 41.5713 25.8741 44.8994 26.6144 46.5335C27.288 48.0141 27.6482 49.7682 27.9683 51.3089C28.0817 51.8624 28.1951 52.396 28.3151 52.8962C28.4819 53.5965 29.0955 54.0967 29.6957 54.5769C30.436 55.1772 31.3564 55.9175 31.0697 57.1114C30.9096 57.7783 30.5228 58.1185 30.2293 58.2785C29.9225 58.4519 29.5823 58.5186 29.2155 58.5186Z" fill="#24005E"/>
<path d="M10.501 10.1311C9.50719 6.96972 9.5072 6.96972 7.48633 5.40904C9.50053 3.85504 9.50719 3.84837 10.501 0.687012C11.4947 3.84837 11.4947 3.84837 13.5156 5.40904C11.5014 6.96305 11.4947 6.96972 10.501 10.1311Z" fill="#FF6200"/>
<path d="M10.5006 10.818C10.2005 10.818 9.93368 10.6246 9.84697 10.3378C8.91991 7.38318 8.91991 7.38318 7.07245 5.9559C6.90571 5.82918 6.80566 5.62242 6.80566 5.409C6.80566 5.19557 6.90571 4.99548 7.07245 4.86209C8.91991 3.43481 8.91991 3.43481 9.84697 0.480207C9.93368 0.193417 10.2005 0 10.5006 0C10.8007 0 11.0675 0.193417 11.1542 0.480207C12.0813 3.43481 12.0813 3.43481 13.9287 4.86209C14.0955 4.99548 14.1955 5.19557 14.1955 5.409C14.1955 5.62242 14.0955 5.82251 13.9287 5.9559C12.0813 7.38318 12.0813 7.38318 11.1542 10.3378C11.0675 10.6246 10.8007 10.818 10.5006 10.818ZM8.60644 5.409C9.64689 6.24269 10.0404 6.72289 10.5006 7.95009C10.9608 6.72289 11.3543 6.24936 12.3947 5.409C11.3543 4.5753 10.9608 4.10177 10.5006 2.8679C10.0404 4.0951 9.64689 4.5753 8.60644 5.409Z" fill="#24005E"/>
<path d="M4.05874 21.396C3.2584 18.8549 3.25839 18.8549 1.6377 17.601C3.25839 16.3471 3.2584 16.3471 4.05874 13.806C4.85909 16.3471 4.85908 16.3471 6.47978 17.601C4.85908 18.8549 4.85909 18.8549 4.05874 21.396Z" fill="#FF6200"/>
<path d="M4.0582 22.0829C3.75807 22.0829 3.49128 21.8895 3.40458 21.6027C2.67093 19.2683 2.67094 19.2683 1.21698 18.1479C1.05024 18.0145 0.950195 17.8144 0.950195 17.6009C0.950195 17.3875 1.05024 17.1874 1.21698 17.054C2.67094 15.9336 2.67093 15.9336 3.40458 13.5992C3.49128 13.3124 3.75807 13.119 4.0582 13.119C4.35833 13.119 4.6251 13.3124 4.71181 13.5992C5.44546 15.9336 5.44546 15.9336 6.89942 17.054C7.06616 17.1808 7.1662 17.3875 7.1662 17.6009C7.1662 17.8144 7.06616 18.0145 6.89942 18.1479C5.44546 19.2683 5.44546 19.2683 4.71181 21.6027C4.6251 21.8895 4.35833 22.0829 4.0582 22.0829ZM2.74429 17.6009C3.41792 18.1545 3.73806 18.5347 4.05153 19.275C4.365 18.5347 4.68514 18.1545 5.35876 17.6009C4.68514 17.0474 4.365 16.6672 4.05153 15.9269C3.74473 16.6739 3.42459 17.0474 2.74429 17.6009Z" fill="#24005E"/>
<path d="M33.7443 39.0901C33.0774 36.9625 33.0707 36.9625 31.7168 35.9087C33.0774 34.8616 33.0774 34.8549 33.7443 32.734C34.4113 34.8616 34.418 34.8616 35.7719 35.9087C34.418 36.9558 34.418 36.9625 33.7443 39.0901Z" fill="#FF6200"/>
<path d="M33.7448 39.7772C33.4446 39.7772 33.1779 39.5838 33.0912 39.297C32.4842 37.3762 32.4842 37.3762 31.2971 36.4558C31.1303 36.329 31.0303 36.1223 31.0303 35.9089C31.0303 35.6954 31.1303 35.4953 31.2971 35.362C32.4842 34.4416 32.4842 34.4416 33.0912 32.5207C33.1779 32.2339 33.4446 32.0405 33.7448 32.0405C34.0449 32.0405 34.3117 32.2339 34.3984 32.5207C35.0053 34.4416 35.0053 34.4416 36.1925 35.362C36.3592 35.4887 36.4593 35.6954 36.4593 35.9089C36.4593 36.1223 36.3592 36.3224 36.1925 36.4558C35.0053 37.3695 35.0053 37.3695 34.3984 39.297C34.3117 39.5838 34.0449 39.7772 33.7448 39.7772ZM32.8244 35.9089C33.2712 36.2824 33.5247 36.5825 33.7514 37.0427C33.9782 36.5758 34.2316 36.2824 34.6718 35.9089C34.2316 35.5354 33.9715 35.2352 33.7514 34.775C33.518 35.2419 33.2646 35.5354 32.8244 35.9089Z" fill="#24005E"/>
<path d="M35.905 27.3319C35.078 24.6907 35.0713 24.6907 33.3906 23.3902C35.0713 22.0896 35.078 22.0896 35.905 19.4485C36.7321 22.0896 36.7387 22.0896 38.4195 23.3902C36.7387 24.6907 36.7387 24.6907 35.905 27.3319Z" fill="#FF6200"/>
<path d="M35.9055 28.0188C35.6054 28.0188 35.3386 27.8254 35.2519 27.5386C34.4849 25.1042 34.4849 25.1042 32.9709 23.937C32.8041 23.8103 32.7041 23.6036 32.7041 23.3901C32.7041 23.1767 32.8041 22.9766 32.9709 22.8432C34.4849 21.6761 34.4849 21.6761 35.2519 19.2417C35.3386 18.9549 35.6054 18.7615 35.9055 18.7615C36.2056 18.7615 36.4724 18.9549 36.5591 19.2417C37.3261 21.6761 37.3261 21.6761 38.8401 22.8432C39.0068 22.9766 39.1069 23.1767 39.1069 23.3901C39.1069 23.6036 39.0068 23.8036 38.8401 23.937C37.3261 25.1042 37.3261 25.1042 36.5591 27.5386C36.4724 27.8254 36.2056 28.0188 35.9055 28.0188ZM34.5049 23.3901C35.2385 23.9904 35.572 24.3839 35.9055 25.1976C36.239 24.3839 36.5724 23.9904 37.3061 23.3901C36.5724 22.7899 36.239 22.3964 35.9055 21.5827C35.572 22.3964 35.2385 22.7899 34.5049 23.3901Z" fill="#24005E"/>
<path d="M29.9691 33.3743C28.8753 29.8994 28.8753 29.8994 26.6543 28.1854C28.8686 26.4713 28.8753 26.4713 29.9691 22.9965C31.0629 26.4713 31.0629 26.4713 33.2772 28.1854C31.0629 29.8928 31.0629 29.8994 29.9691 33.3743Z" fill="#FF6200"/>
<path d="M29.9697 34.0613C29.6695 34.0613 29.4028 33.8679 29.316 33.5811C28.2889 30.313 28.2889 30.313 26.2414 28.7323C26.0747 28.5989 25.9746 28.3989 25.9746 28.1854C25.9746 27.972 26.0747 27.7719 26.2414 27.6385C28.2889 26.0579 28.2889 26.0579 29.316 22.7898C29.4028 22.503 29.6695 22.3096 29.9697 22.3096C30.2698 22.3096 30.5366 22.503 30.6233 22.7898C31.6504 26.0579 31.6504 26.0579 33.6979 27.6385C33.8647 27.7719 33.9647 27.972 33.9647 28.1854C33.9647 28.3989 33.8647 28.5989 33.6979 28.7323C31.6504 30.313 31.6504 30.313 30.6233 33.5811C30.5366 33.8679 30.2698 34.0613 29.9697 34.0613ZM27.7821 28.1854C29.0226 29.1725 29.4361 29.6661 29.9763 31.1667C30.5166 29.6661 30.9301 29.1725 32.1706 28.1854C30.9301 27.1983 30.5166 26.7048 29.9763 25.2041C29.4294 26.7048 29.0226 27.1983 27.7821 28.1854Z" fill="#24005E"/>
<path d="M9.31972 38.8635L5.51141 53.0896C5.27798 53.9634 4.1575 54.3368 3.28379 54.1168L3.0837 54.0967C2.67019 53.9834 2.49678 53.7232 2.61016 53.3097L3.49721 50.015L4.12415 47.6673L6.55853 38.6234L9.31972 38.8635Z" fill="#FF8AB9"/>
<path d="M3.80392 54.8636C3.59049 54.8636 3.37707 54.8369 3.17031 54.7902L3.02358 54.7769C2.98357 54.7702 2.94355 54.7635 2.90353 54.7569C2.11652 54.5368 1.74303 53.9032 1.94979 53.1295L5.89815 38.4365C5.9982 38.0697 6.37836 37.8562 6.73851 37.9496C7.10534 38.0497 7.32544 38.4232 7.22539 38.79L3.29037 53.4163L3.35039 53.4229C3.38374 53.4296 3.42376 53.4296 3.4571 53.443C3.984 53.5763 4.72431 53.3696 4.84436 52.9094L8.65268 38.6833C8.75272 38.3164 9.12621 38.0964 9.49304 38.1964C9.85986 38.2964 10.0799 38.6699 9.97991 39.0368L6.1716 53.2562C5.89815 54.3167 4.83769 54.8636 3.80392 54.8636Z" fill="#24005E"/>
<path d="M6.24414 38.3769L7.53136 38.7171L8.35839 38.9305C9.95908 39.3507 12.3068 35.6958 13.594 30.7737C14.8812 25.8449 14.6278 21.5164 13.0271 21.0962L10.9195 20.5426L6.24414 38.3769Z" fill="#FF8AB9"/>
<path d="M8.62525 39.6507C8.47852 39.6507 8.33179 39.6307 8.19173 39.5973L6.07749 39.0437C5.71066 38.9504 5.49057 38.5702 5.58395 38.2034C5.67732 37.8365 6.05748 37.6165 6.42431 37.7098L8.53855 38.2634C9.29887 38.4568 11.5398 35.9357 12.9338 30.5934C13.5407 28.2791 13.8141 26.0381 13.7141 24.2774C13.6074 22.4299 13.1205 21.823 12.8537 21.7496L10.7462 21.1961C10.3793 21.1027 10.1592 20.7225 10.2526 20.3557C10.346 19.9889 10.7262 19.7688 11.093 19.8621L13.2006 20.4157C13.9676 20.6158 14.9213 21.4362 15.0814 24.1907C15.1947 26.0915 14.9013 28.4859 14.261 30.9336C13.1005 35.4155 10.8329 39.6507 8.62525 39.6507Z" fill="#24005E"/>
<path d="M11.4535 24.9509C11.7069 22.4232 11.3134 20.6358 10.4597 20.4157C9.9995 20.2956 9.44593 20.6491 8.86568 21.3561L8.3788 22.023C8.05199 22.5166 7.73186 23.1101 7.41172 23.7838C7.13827 24.364 6.71809 25.5112 6.24455 26.745C6.01112 27.352 5.85105 28.0123 5.67097 28.6859C4.38375 33.6147 4.43044 37.8898 5.78436 38.2433C7.10493 38.5901 9.17915 35.0553 10.473 30.2999L10.6731 29.5262C10.8799 28.6859 11.0533 27.8655 11.18 27.0852C11.1867 27.0919 11.4001 25.4845 11.4535 24.9509Z" fill="#0097F4"/>
<path d="M5.98461 38.9702C5.86455 38.9702 5.73783 38.9568 5.61778 38.9235C3.48353 38.3633 3.81034 33.141 5.01752 28.5257L5.06421 28.3389C5.22427 27.732 5.38434 27.1051 5.6111 26.5182L5.85788 25.8645C6.23138 24.8641 6.55818 24.0037 6.79829 23.5035C7.13843 22.7899 7.47857 22.1696 7.81205 21.6561L8.31227 20.9624C9.12595 19.962 9.89962 19.5618 10.6333 19.7552C11.8938 20.0821 12.4407 22.0029 12.1339 25.0242C12.0806 25.5644 11.8671 27.1851 11.8671 27.1851C11.7271 28.0188 11.5537 28.8592 11.3469 29.7062L11.1402 30.4865C10.2598 33.7346 8.2189 38.9702 5.98461 38.9702ZM10.2731 21.0758C10.1997 21.0758 9.89295 21.1892 9.39941 21.7895L8.93921 22.4297C8.65909 22.8632 8.34562 23.4302 8.03882 24.0838C7.82539 24.5306 7.51192 25.371 7.1451 26.3447L6.89833 26.9984C6.70491 27.5186 6.55818 28.0788 6.39811 28.6791L6.35143 28.8658C4.95083 34.2281 5.45771 37.4495 5.97126 37.5829C6.46481 37.7096 8.40565 35.3353 9.82626 30.1197L10.0263 29.3527C10.2264 28.5524 10.3932 27.7454 10.5199 26.9717C10.5199 26.9717 10.7266 25.3977 10.78 24.8708C11.0534 22.1496 10.4799 21.1158 10.2998 21.0691C10.2798 21.0825 10.2798 21.0758 10.2731 21.0758Z" fill="#24005E"/>
<path d="M15.8756 29.8465C15.8155 29.8465 15.7622 29.8398 15.7022 29.8265L13.888 29.3529C13.5212 29.2595 13.3011 28.8794 13.3945 28.5126C13.4879 28.1457 13.868 27.9256 14.2349 28.019L16.049 28.4925C16.4158 28.5859 16.6359 28.9661 16.5425 29.3329C16.4625 29.6397 16.1824 29.8465 15.8756 29.8465Z" fill="#24005E"/>
<path d="M16.1692 27.7121C16.1092 27.7121 16.0558 27.7054 15.9958 27.6921L14.2084 27.2252C13.8415 27.1319 13.6214 26.7517 13.7148 26.3849C13.8082 26.018 14.1883 25.7979 14.5552 25.8913L16.3426 26.3582C16.7094 26.4516 16.9295 26.8317 16.8362 27.1985C16.7494 27.5053 16.476 27.7121 16.1692 27.7121Z" fill="#24005E"/>
<path d="M16.2156 25.5178C16.1555 25.5178 16.1022 25.5112 16.0422 25.4978L14.2347 25.0243C13.8679 24.9309 13.6478 24.5508 13.7412 24.1839C13.8345 23.8171 14.2147 23.597 14.5815 23.6904L16.389 24.1639C16.7558 24.2573 16.9759 24.6375 16.8825 25.0043C16.8025 25.3111 16.5224 25.5178 16.2156 25.5178Z" fill="#24005E"/>
<path d="M15.7359 23.1768C15.6759 23.1768 15.6226 23.1702 15.5625 23.1568L13.7884 22.6899C13.4216 22.5966 13.2015 22.2164 13.2949 21.8496C13.3949 21.4828 13.7684 21.2627 14.1352 21.356L15.9093 21.8229C16.2762 21.9163 16.4963 22.2964 16.4029 22.6633C16.3162 22.9767 16.0361 23.1768 15.7359 23.1768Z" fill="#24005E"/>
<path d="M15.4213 31.9339C15.3613 31.9339 15.3079 31.9272 15.2479 31.9139L13.4271 31.4403C13.0603 31.3469 12.8402 30.9668 12.9336 30.6C13.0269 30.2331 13.4071 30.013 13.7739 30.1064L15.5947 30.5799C15.9615 30.6733 16.1816 31.0535 16.0882 31.4203C16.0082 31.7271 15.7281 31.9339 15.4213 31.9339Z" fill="#24005E"/>
<path d="M14.0012 35.9824C13.9412 35.9824 13.8878 35.9757 13.8278 35.9624L12.0404 35.4955C11.6736 35.4021 11.4535 35.022 11.5468 34.6551C11.6402 34.2883 12.0204 34.0682 12.3872 34.1616L14.1746 34.6285C14.5415 34.7218 14.7616 35.102 14.6682 35.4688C14.5881 35.7756 14.308 35.9824 14.0012 35.9824Z" fill="#24005E"/>
<path d="M14.7887 33.9748C14.7286 33.9748 14.6753 33.9681 14.6152 33.9547L12.8011 33.4812C12.4343 33.3878 12.2142 33.0077 12.3076 32.6408C12.401 32.274 12.7811 32.0539 13.1479 32.1473L14.9621 32.6208C15.3289 32.7142 15.549 33.0944 15.4556 33.4612C15.3689 33.768 15.0888 33.9748 14.7887 33.9748Z" fill="#24005E"/>
<path d="M11.4065 39.7173C11.3464 39.7173 11.2931 39.7106 11.2331 39.6973L9.48564 39.2371C9.11882 39.1437 8.89872 38.7635 8.99876 38.3967C9.09214 38.0299 9.46563 37.8098 9.83912 37.9032L11.5865 38.3634C11.9534 38.4567 12.1735 38.8369 12.0734 39.2037C11.9867 39.5105 11.7066 39.7173 11.4065 39.7173Z" fill="#24005E"/>
<path d="M13.0014 37.9233C12.948 37.9233 12.888 37.9167 12.828 37.9033L11.0072 37.4365C10.6404 37.3431 10.4203 36.9696 10.5136 36.6028C10.607 36.2359 10.9805 36.0158 11.3473 36.1092L13.1681 36.5761C13.5349 36.6695 13.755 37.043 13.6617 37.4098C13.5883 37.7166 13.3082 37.9233 13.0014 37.9233Z" fill="#24005E"/>
<path d="M4.89705 33.728C4.75032 33.728 4.59692 33.6813 4.4702 33.5812C2.68943 32.1673 1.89576 30.4866 2.29593 28.9659L2.32928 28.8459C3.11629 26.3181 6.97128 25.2043 11.1197 26.2914C11.5066 26.3915 11.8934 26.5115 12.2669 26.6449L14.3211 27.1851C14.6879 27.2785 14.908 27.6587 14.8147 28.0255C14.7146 28.3923 14.3411 28.6124 13.9743 28.5191L11.8867 27.9722C11.8667 27.9655 11.8467 27.9588 11.8267 27.9521C11.4866 27.8254 11.1331 27.7187 10.7729 27.6253C7.45148 26.7583 4.19009 27.4986 3.64985 29.2394L3.62317 29.3261C3.3764 30.2665 4.01 31.4603 5.33057 32.5008C5.6307 32.7342 5.67739 33.1677 5.44395 33.4678C5.30389 33.6346 5.10381 33.728 4.89705 33.728Z" fill="#24005E"/>
</svg>
