<svg width="38" height="54" viewBox="0 0 38 54" fill="none" xmlns="http://www.w3.org/2000/svg">
<path d="M28.7153 1.14734V4.88228C28.9687 7.1766 30.0892 9.651 30.7962 10.9849L7.12598 11.1316C7.79293 9.81106 8.76001 7.39003 8.99345 5.26911V1.14734H28.7153Z" fill="white"/>
<path d="M7.1256 11.8185C6.8855 11.8185 6.6654 11.6985 6.53868 11.4917C6.41196 11.2916 6.39862 11.0315 6.50533 10.8181C7.19896 9.43748 8.08602 7.14983 8.29945 5.22233V1.14057C8.29945 0.760411 8.60625 0.453613 8.98641 0.453613C9.36658 0.453613 9.67336 0.760411 9.67336 1.14057V5.26235C9.67336 5.28903 9.67337 5.31571 9.6667 5.33572C9.47996 7.03645 8.84634 8.93726 8.19273 10.4312L29.6686 10.2979C29.0484 8.97061 28.228 6.92307 28.0079 4.94888C28.0079 4.92221 28.0013 4.89552 28.0013 4.87552V1.14057C28.0013 0.760411 28.3081 0.453613 28.6882 0.453613C29.0684 0.453613 29.3752 0.760411 29.3752 1.14057V4.8355C29.6486 7.17651 30.8625 9.68425 31.376 10.658C31.4894 10.8714 31.4828 11.1249 31.356 11.3316C31.236 11.5384 31.0092 11.6651 30.7691 11.6651L7.1256 11.8185C7.13227 11.8185 7.13227 11.8185 7.1256 11.8185Z" fill="#24005E"/>
<path d="M27.0878 53.2095C27.0878 53.2095 31.6631 47.1135 34.5444 38.9834L36.2918 21.6759C35.8649 19.7284 35.178 17.8076 34.1575 15.9535L3.8178 15.8934C-5.60626 31.9537 10.5807 53.2095 10.5807 53.2095H27.0878Z" fill="white"/>
<path d="M10.5807 53.8966C10.374 53.8966 10.1672 53.8032 10.0338 53.6232C9.3602 52.7428 -6.32656 31.8138 3.22422 15.5401C3.34427 15.3267 3.57104 15.2 3.81782 15.2L34.1575 15.26C34.411 15.26 34.6377 15.3934 34.7578 15.6135C35.7649 17.4476 36.5119 19.4351 36.9654 21.5227C36.9788 21.596 36.9854 21.6694 36.9788 21.7361L35.2313 39.0435C35.2247 39.0969 35.2113 39.1503 35.198 39.2036C32.3168 47.3405 27.8282 53.363 27.6414 53.6098C27.4146 53.9166 26.9811 53.9766 26.681 53.7499C26.3809 53.5231 26.3142 53.0896 26.5409 52.7895C26.5876 52.7294 31.0629 46.7135 33.8774 38.8235L35.6048 21.7094C35.2047 19.922 34.5844 18.2213 33.7507 16.6339L4.21799 16.5739C-4.44574 32.0205 10.9742 52.576 11.1343 52.7828C11.3677 53.0829 11.3077 53.5164 11.0076 53.7499C10.8742 53.8499 10.7275 53.8966 10.5807 53.8966Z" fill="#24005E"/>
<path d="M18.9575 25.8446C22.7191 16.9941 34.1574 16.027 34.1574 16.027L34.1507 15.947C33.4704 14.7131 32.6434 13.5059 31.6496 12.3454C31.6496 12.3454 31.2094 11.7652 30.5825 10.578L30.5491 10.5913H7.36583C6.6722 11.9719 6.05194 12.7523 6.05194 12.7523C5.1849 13.766 4.4379 14.8198 3.81097 15.887L3.6709 16.047C3.67757 16.0537 15.2626 17.2809 18.9575 25.8446Z" fill="#0097F4"/>
<path d="M18.9576 26.5316C18.6842 26.5316 18.4374 26.3715 18.324 26.118C14.8225 18.0146 3.71105 16.7473 3.59767 16.734C3.34423 16.7073 3.12413 16.5406 3.03076 16.3072C2.93738 16.0737 2.9774 15.8003 3.14414 15.6069L3.24418 15.4868C3.89779 14.3797 4.66479 13.3125 5.52516 12.3054C5.52516 12.3054 6.10541 11.5651 6.74569 10.2846C6.83906 10.1045 7.00579 9.97109 7.20588 9.9244C7.27257 9.91106 7.34594 9.90439 7.41264 9.91106H30.5159C30.7894 9.89106 31.0695 10.0244 31.1962 10.2645C31.7831 11.3784 32.1966 11.9319 32.2033 11.9319C33.1704 13.0658 34.0441 14.313 34.7577 15.6202C34.8044 15.7002 34.8311 15.7936 34.8378 15.887L34.8445 15.967C34.8645 16.1471 34.8044 16.3338 34.691 16.4739C34.571 16.614 34.4043 16.7007 34.2175 16.7207C34.1041 16.7273 23.1394 17.7611 19.5912 26.118C19.4845 26.3715 19.2377 26.5316 18.9576 26.5316C18.9643 26.5316 18.9643 26.5316 18.9576 26.5316ZM4.84487 15.5335C7.71277 16.047 15.3961 17.9679 18.9576 24.2906C22.5658 17.7078 30.2892 15.9203 33.0904 15.4801C32.5168 14.5464 31.8632 13.6527 31.1362 12.799C31.0962 12.7523 30.7227 12.2587 30.1891 11.285H7.7928C7.15919 12.4788 6.62563 13.1525 6.60562 13.1858C5.94534 13.9461 5.35842 14.7265 4.84487 15.5335Z" fill="#24005E"/>
<path d="M9.98775 34.7551C9.60758 34.7551 9.30078 34.4483 9.30078 34.0681C9.30078 33.6879 9.60758 33.3811 9.98775 33.3811C12.7489 33.3811 15.33 31.7938 16.8907 29.1393C17.8378 27.5253 18.338 25.6378 18.338 23.6769C18.338 23.2968 18.6448 22.99 19.025 22.99C19.4051 22.99 19.7119 23.2968 19.7119 23.6769C19.7119 25.8846 19.145 28.0121 18.0712 29.8396C16.2638 32.9143 13.2425 34.7551 9.98775 34.7551Z" fill="#24005E"/>
<path d="M22.3191 32.8476C22.1657 32.8476 22.0189 32.8009 21.8922 32.6942C20.7917 31.8138 19.8847 30.6733 19.2577 29.3994C18.5841 28.0255 18.2373 26.5448 18.2373 24.9975C18.2373 24.6173 18.5441 24.3105 18.9243 24.3105C19.3044 24.3105 19.6112 24.6173 19.6112 24.9975C19.6112 26.3314 19.9047 27.612 20.4916 28.7925C21.0318 29.8863 21.8122 30.8667 22.7526 31.6204C23.046 31.8605 23.0994 32.294 22.8593 32.5875C22.7192 32.7542 22.5191 32.8476 22.3191 32.8476Z" fill="#24005E"/>
<path d="M18.9243 53.8966C18.5441 53.8966 18.2373 53.5898 18.2373 53.2096V25.8512C18.2373 25.471 18.5441 25.1642 18.9243 25.1642C19.3044 25.1642 19.6112 25.471 19.6112 25.8512V53.2096C19.6112 53.5898 19.2978 53.8966 18.9243 53.8966Z" fill="#24005E"/>
<path d="M19.0239 27.4653C18.6437 27.4653 18.3369 27.1585 18.3369 26.7783V19.0017C18.3369 18.6215 18.6437 18.3147 19.0239 18.3147C19.404 18.3147 19.7108 18.6215 19.7108 19.0017V26.7783C19.7108 27.1585 19.404 27.4653 19.0239 27.4653Z" fill="#24005E"/>
<path d="M18.8305 7.0031C18.4504 7.0031 18.1436 6.6963 18.1436 6.31613V1.43403C18.1436 1.05387 18.4504 0.74707 18.8305 0.74707C19.2107 0.74707 19.5175 1.05387 19.5175 1.43403V6.31613C19.5175 6.6963 19.2107 7.0031 18.8305 7.0031Z" fill="#24005E"/>
<path d="M36.5177 21.8964L35.0104 21.7363C34.2434 21.6563 33.5431 22.2766 33.4497 23.1236L32.436 32.6143C32.3426 33.4614 32.9028 34.215 33.6632 34.3017L35.1972 34.4618L33.7565 47.8876L36.5177 21.8964Z" fill="#FF8AB9"/>
<path d="M33.7697 48.5744C33.7431 48.5744 33.7231 48.5744 33.6964 48.5677C33.3162 48.5277 33.0427 48.1876 33.0828 47.8141L34.43 35.0686L33.5963 34.9819C33.0294 34.9218 32.5225 34.6217 32.1757 34.1482C31.8422 33.688 31.6888 33.1211 31.7555 32.5408L32.7693 23.0501C32.8293 22.4698 33.0961 21.9429 33.523 21.5694C33.9632 21.1759 34.5234 20.9959 35.0836 21.0492L36.5909 21.2093C36.9711 21.2493 37.2446 21.5894 37.2045 21.9629L35.8906 34.3749C35.8973 34.4283 35.8973 34.4817 35.8906 34.5284L34.45 47.9541C34.4167 48.3143 34.1165 48.5744 33.7697 48.5744ZM34.8769 22.4165C34.7235 22.4165 34.5701 22.4765 34.4367 22.5965C34.2699 22.7433 34.1632 22.9567 34.1366 23.1968L33.1228 32.6876C33.0961 32.9277 33.1561 33.1544 33.2895 33.3412C33.4096 33.5012 33.5697 33.6013 33.7431 33.6213L34.5768 33.708L35.7639 22.5098L34.9436 22.4231C34.9169 22.4165 34.8969 22.4165 34.8769 22.4165Z" fill="#24005E"/>
<path d="M33.3171 24.8842C33.2904 24.8842 33.2704 24.8842 33.2437 24.8775L30.4358 24.5774C30.0557 24.5374 29.7822 24.1972 29.8222 23.8171C29.8623 23.4369 30.1957 23.1635 30.5759 23.2035L33.3838 23.5036C33.7639 23.5436 34.0374 23.8838 33.9974 24.2573C33.964 24.6241 33.6639 24.8842 33.3171 24.8842Z" fill="#24005E"/>
<path d="M33.0563 27.3519C33.0297 27.3519 33.0096 27.3519 32.983 27.3452L30.1751 27.0451C29.7949 27.0051 29.5215 26.665 29.5615 26.2915C29.6015 25.9113 29.935 25.6445 30.3218 25.6779L33.1297 25.978C33.5099 26.018 33.7833 26.3582 33.7433 26.7317C33.7033 27.0918 33.4032 27.3519 33.0563 27.3519Z" fill="#24005E"/>
<path d="M32.7839 29.893C32.7572 29.893 32.7372 29.893 32.7105 29.8864L29.9026 29.5862C29.5225 29.5462 29.249 29.2061 29.289 28.8326C29.3291 28.4524 29.6692 28.179 30.0427 28.219L32.8506 28.5191C33.2307 28.5591 33.5042 28.8993 33.4642 29.2728C33.4308 29.6329 33.1307 29.893 32.7839 29.893Z" fill="#24005E"/>
<path d="M32.5231 32.3608C32.4965 32.3608 32.4764 32.3608 32.4498 32.3541L29.6419 32.054C29.2617 32.014 28.9883 31.6738 29.0283 31.3003C29.0683 30.9202 29.4018 30.6467 29.7819 30.6867L32.5898 30.9869C32.97 31.0269 33.2434 31.367 33.2034 31.7405C33.1701 32.1007 32.8699 32.3608 32.5231 32.3608Z" fill="#24005E"/>
<path d="M13.182 51.2356C12.9752 51.2356 12.7685 51.1422 12.6351 50.9622C8.43326 45.4131 5.74543 37.1495 5.0718 34.435C4.97843 34.0682 5.20519 33.6947 5.57202 33.6013C5.94551 33.508 6.31234 33.7347 6.40571 34.1016C7.06599 36.7427 9.66712 44.7662 13.7355 50.1351C13.9623 50.4353 13.9023 50.8688 13.6022 51.1022C13.4688 51.1889 13.322 51.2356 13.182 51.2356Z" fill="#24005E"/>
<path d="M23.626 53.1762C23.4993 53.1762 23.3659 53.1429 23.2525 53.0629C22.9324 52.8561 22.8457 52.4293 23.0525 52.1091C25.6136 48.1874 28.0146 43.3787 29.035 40.1573C29.1484 39.7972 29.5353 39.5971 29.8954 39.7104C30.2556 39.8238 30.4556 40.2107 30.3423 40.5708C29.2885 43.9056 26.8207 48.8477 24.1996 52.8628C24.0662 53.0695 23.8461 53.1762 23.626 53.1762Z" fill="#24005E"/>
<path d="M4.73814 36.3624C4.67144 36.3624 4.61142 36.3557 4.54473 36.3357C4.1779 36.229 3.97115 35.8489 4.07786 35.482L4.77148 33.0943C4.83818 32.8676 5.01159 32.6942 5.23835 32.6275C5.46512 32.5608 5.70523 32.6141 5.88531 32.7675L7.6594 34.3215C7.94619 34.575 7.97287 35.0085 7.72609 35.2953C7.47932 35.5821 7.03913 35.6088 6.75901 35.362L5.79193 34.5216L5.39843 35.8689C5.31173 36.169 5.03827 36.3624 4.73814 36.3624Z" fill="#24005E"/>
<path d="M30.6768 42.0984C30.3767 42.0984 30.1032 41.8983 30.0165 41.5981L29.6764 40.411L28.5759 41.2847C28.2758 41.5181 27.8423 41.4714 27.6088 41.1713C27.3754 40.8712 27.4221 40.4376 27.7222 40.2042L29.6297 38.6969C29.8098 38.5568 30.0499 38.5101 30.27 38.5835C30.4901 38.6569 30.6568 38.8303 30.7235 39.0504L31.3438 41.2246C31.4505 41.5915 31.237 41.9716 30.8702 42.0783C30.8035 42.0917 30.7368 42.0984 30.6768 42.0984Z" fill="#24005E"/>
</svg>
