<svg width="53" height="48" viewBox="0 0 53 48" fill="none" xmlns="http://www.w3.org/2000/svg">
<path d="M0.69043 18.2729C5.17236 28.1838 10.0878 35.9472 18.5448 44.3508C20.9458 46.9119 24.1005 48.1658 26.8684 44.1974C27.5953 43.1569 28.6158 42.3633 29.6229 41.5896C42.7485 31.4452 46.9303 26.4631 52.286 21.2542L44.8361 13.8043C37.9665 18.1795 32.2307 20.3471 24.6608 25.8762C23.7604 24.3422 22.3998 22.4747 21.5661 19.8602C18.985 11.7901 17.0908 6.76793 15.6569 3.31311L0.69043 18.2729Z" fill="white"/>
<path d="M22.9333 47.2987C21.3326 47.2987 19.6519 46.405 18.0445 44.6909C10.1812 36.8742 4.96557 29.2576 0.0634638 18.4196C-0.0966051 18.0728 0.0567943 17.666 0.40361 17.5126C0.750426 17.3592 1.15727 17.5126 1.31067 17.8527C6.13941 28.524 11.275 36.0205 19.025 43.7305C20.0254 44.7976 21.5394 46.0315 23.1267 45.9115C24.2472 45.8314 25.3143 45.0778 26.2948 43.6705C27.0818 42.5367 28.1556 41.7096 29.1893 40.9093C39.6739 32.8058 44.4426 27.9971 48.6511 23.7552C49.7182 22.6814 50.7253 21.6677 51.7924 20.6272C52.0659 20.3604 52.4994 20.3671 52.7662 20.6406C53.0329 20.914 53.0263 21.3475 52.7528 21.6143C51.6924 22.6414 50.6919 23.6552 49.6315 24.7223C45.3896 28.9975 40.5876 33.8396 30.0364 41.9964C29.0826 42.7367 28.0955 43.4971 27.4286 44.4508C26.2014 46.2116 24.7874 47.1653 23.2268 47.2787C23.1334 47.292 23.0334 47.2987 22.9333 47.2987Z" fill="#24005E"/>
<path d="M24.6613 26.4298C24.6146 26.4298 24.5679 26.4231 24.5212 26.4164C24.3278 26.3764 24.1677 26.2563 24.0677 26.0896C23.8809 25.7761 23.6809 25.4493 23.4674 25.1025C22.6337 23.7619 21.6 22.0879 20.913 19.9403C18.7454 13.1574 16.8179 7.76172 15.0171 3.43986C14.8704 3.08637 15.0371 2.6862 15.3906 2.53947C15.7374 2.39274 16.1443 2.55948 16.291 2.91296C18.1051 7.26817 20.046 12.7038 22.2202 19.5201C22.8538 21.5076 23.8009 23.035 24.6346 24.3755C24.7146 24.5023 24.788 24.6223 24.8614 24.749C29.1632 21.6677 32.9248 19.6202 36.5664 17.646C39.1008 16.272 41.7153 14.8448 44.4631 13.0973C44.7833 12.8906 45.2101 12.9906 45.4102 13.3108C45.617 13.6309 45.5169 14.0578 45.1968 14.2578C42.4156 16.0319 39.7745 17.4659 37.22 18.8532C33.4451 20.9074 29.5434 23.0283 25.0548 26.303C24.9481 26.3831 24.808 26.4298 24.6613 26.4298Z" fill="#24005E"/>
<path d="M22.9798 29.2242C22.9265 29.2242 22.8731 29.2175 22.8197 29.2042C22.4529 29.1175 22.2195 28.7507 22.3062 28.3772C22.5396 27.3767 23.2733 26.1495 24.167 25.2492C24.4338 24.9824 24.874 24.9824 25.1407 25.2492C25.4075 25.5159 25.4075 25.9561 25.1407 26.2229C24.4271 26.9365 23.8268 27.9303 23.6468 28.6906C23.5801 29.0108 23.2933 29.2242 22.9798 29.2242Z" fill="#24005E"/>
<path d="M14.169 25.8627C17.9519 25.8627 21.0186 21.4613 21.0186 16.0318C21.0186 10.6024 17.9519 6.20093 14.169 6.20093C10.386 6.20093 7.31934 10.6024 7.31934 16.0318C7.31934 21.4613 10.386 25.8627 14.169 25.8627Z" fill="#0097F4"/>
<path d="M14.1684 26.5498C10.0133 26.5498 6.63184 21.8344 6.63184 16.0319C6.63184 10.2294 10.0133 5.51404 14.1684 5.51404C18.3235 5.51404 21.705 10.2294 21.705 16.0319C21.705 21.8344 18.3235 26.5498 14.1684 26.5498ZM14.1684 6.88797C10.7736 6.88797 8.00576 10.9897 8.00576 16.0319C8.00576 21.0741 10.7669 25.1758 14.1684 25.1758C17.5699 25.1758 20.3311 21.0741 20.3311 16.0319C20.3244 10.9897 17.5632 6.88797 14.1684 6.88797Z" fill="#24005E"/>
<path d="M11.3015 1.69238V4.12676L11.2949 4.667L11.1681 4.72702C10.8147 4.93378 10.4745 5.16721 10.1677 5.42732C10.1677 5.42732 8.29357 6.96132 7.42653 9.22896L6.37941 11.75C6.37941 11.75 5.79249 13.4241 5.61242 15.2916C5.54572 15.9519 6.04594 16.5388 6.70622 16.5721L6.79959 16.5788C7.41986 16.6055 7.94008 16.1453 8.00678 15.525C8.11349 14.5646 8.45364 13.6242 9.3607 13.4841C9.3607 13.4841 10.1744 13.6975 10.3745 14.818V19.5868C10.3745 20.3271 10.9614 20.9407 11.7084 20.9607C12.482 20.9807 13.1223 20.3604 13.1223 19.5868L13.129 13.1707L13.1357 18.4263L13.129 20.5272C13.129 21.1608 13.7359 21.6476 14.4829 21.6076C15.2299 21.5676 15.8368 21.0207 15.8368 20.3804L15.8435 12.6304L15.8368 19.0732C15.8368 19.7802 16.4104 20.3271 17.1174 20.2871C17.8243 20.247 18.3979 19.6401 18.4046 18.9398L18.4113 12.9105L18.3913 18.0528C18.3913 18.7397 18.9515 19.2733 19.6385 19.2399H19.6985C20.3854 19.2066 20.9524 18.613 20.9524 17.926L20.959 12.6171L20.819 9.75586C20.7122 7.88838 19.7518 6.24768 18.3246 5.18055L18.3646 4.667L18.3712 4.20013L18.4046 1.70572H11.3015V1.69238Z" fill="white"/>
<path d="M14.4025 22.2945C13.8623 22.2945 13.3487 22.1011 12.9819 21.7476C12.8752 21.6476 12.7818 21.5342 12.7085 21.4141C12.4017 21.5742 12.0548 21.6543 11.6947 21.6476C10.5742 21.6142 9.69383 20.7072 9.69383 19.5867V14.878C9.6138 14.4912 9.43372 14.2978 9.307 14.211C8.9135 14.4045 8.7601 15.0514 8.70007 15.5983C8.58669 16.5787 7.75967 17.3124 6.77925 17.259L6.68587 17.2524C6.17899 17.2257 5.71212 17.0056 5.37864 16.6187C5.04517 16.2386 4.8851 15.725 4.93178 15.2248C5.11853 13.2973 5.70545 11.5966 5.73213 11.5232L6.79258 8.96879C7.70631 6.57443 9.64715 4.96707 9.72718 4.90037C9.99396 4.66694 10.2941 4.45351 10.6076 4.26009V4.12004V1.69899C10.6076 1.31883 10.9144 1.01203 11.2945 1.01203C11.6747 1.01203 11.9815 1.31883 11.9815 1.69899L11.9748 4.68695C11.9681 4.95373 11.8147 5.18716 11.5746 5.30055L11.4746 5.34723C11.1678 5.52731 10.8743 5.73406 10.6076 5.96083C10.5809 5.9875 8.85347 7.42145 8.06647 9.48234L7.01268 12.0168C7.01268 12.0168 6.46578 13.6175 6.29904 15.3582C6.2857 15.4916 6.32572 15.625 6.41242 15.725C6.49912 15.8251 6.61251 15.8784 6.73923 15.8851L6.8326 15.8918C7.07937 15.9051 7.2928 15.7117 7.31948 15.4516C7.53957 13.4707 8.49332 12.9238 9.26031 12.8104C9.35369 12.7971 9.44706 12.8038 9.53376 12.8238C9.99396 12.9438 10.8343 13.4774 11.0477 14.7046C11.0544 14.7446 11.0611 14.7846 11.0611 14.8246V19.5934C11.0611 19.9669 11.3545 20.267 11.728 20.2803C11.9215 20.287 12.0882 20.2203 12.2283 20.0869C12.3616 19.9602 12.435 19.7801 12.435 19.5934L12.4417 13.1773C12.4417 12.7971 12.7485 12.4903 13.1286 12.4903C13.5088 12.4903 13.8156 12.7971 13.8156 13.1773L13.8223 18.4329L13.8156 20.5338C13.8156 20.6205 13.849 20.6938 13.9223 20.7605C14.0424 20.8739 14.2358 20.9339 14.4425 20.9273C14.8427 20.9073 15.1428 20.6271 15.1495 20.387L15.1562 12.637C15.1562 12.2569 15.463 11.9501 15.8431 11.9501C16.2233 11.9501 16.5301 12.2569 16.5301 12.637L16.5234 19.0798C16.5234 19.2265 16.5835 19.3666 16.6835 19.4666C16.7902 19.5667 16.9236 19.6134 17.077 19.6067C17.4172 19.5867 17.7106 19.2866 17.7106 18.9464V18.2928C17.7039 18.2128 17.6973 18.1394 17.6973 18.0594L17.7173 12.9172C17.7173 12.537 18.0241 12.2302 18.4042 12.2302C18.7844 12.2302 19.0912 12.537 19.0912 12.9172L19.0845 18.1794C19.1046 18.2728 19.1512 18.3528 19.2246 18.4195C19.3246 18.5129 19.458 18.5596 19.5981 18.5529L19.6581 18.5462C19.9849 18.5262 20.2584 18.2394 20.2584 17.9126L20.265 12.6037L20.125 9.7758C20.0383 8.18178 19.2246 6.70114 17.904 5.71405C17.7106 5.57399 17.6106 5.34056 17.6306 5.10713L17.6706 4.59357L17.7039 1.67898C17.7106 1.29882 18.0041 0.978684 18.3976 0.998693C18.7777 1.00536 19.0845 1.31216 19.0779 1.69232L19.0245 4.84701C20.4918 6.07421 21.3855 7.82163 21.4922 9.69577L21.6323 12.5637L21.6256 17.906C21.6256 18.9531 20.7719 19.8535 19.7181 19.9068L19.6581 19.9135C19.3847 19.9268 19.1179 19.8868 18.8778 19.7934C18.5643 20.4537 17.8974 20.9339 17.137 20.974C16.8969 20.9873 16.6502 20.9539 16.4301 20.8806C16.19 21.6476 15.4163 22.2412 14.5026 22.2945C14.4826 22.2945 14.4425 22.2945 14.4025 22.2945Z" fill="#24005E"/>
<path d="M6.6123 16.5787C6.66566 16.7388 6.75237 16.8922 6.86575 17.0323C7.3793 17.6659 8.31971 17.7659 8.95331 17.2524C11.5611 15.1381 17.1702 14.2978 20.0114 16.3186C20.6784 16.7922 21.6054 16.6388 22.0856 15.9718C22.2724 15.7117 22.3591 15.4116 22.3591 15.1114C22.3591 14.6512 22.1457 14.1911 21.7388 13.9043C18.4641 11.5633 13.0751 11.8567 9.31347 13.5908C9.31347 13.5908 7.97289 13.7175 7.97289 15.6984C7.96622 16.5921 6.6123 16.5787 6.6123 16.5787Z" fill="#FF8AB9"/>
<path d="M8.01949 18.2662C7.38589 18.2662 6.75895 17.9927 6.3321 17.4658C6.17203 17.2658 6.04531 17.039 5.96527 16.7989C5.89191 16.5855 5.93193 16.352 6.05865 16.172C6.18537 15.9919 6.39212 15.8852 6.61889 15.8852C6.89901 15.8718 7.23249 15.7851 7.28584 15.7118C7.28584 13.7642 8.41299 13.0506 9.1133 12.9172C12.9149 11.2031 18.5774 10.7963 22.1389 13.3374C22.7058 13.7442 23.046 14.4045 23.046 15.1048C23.046 15.5584 22.9059 15.9985 22.6391 16.3654C22.3056 16.8389 21.7988 17.1524 21.2318 17.2457C20.6583 17.3391 20.0847 17.2057 19.6111 16.8723C17.05 15.0448 11.7611 15.8585 9.38675 17.7793C8.9799 18.1128 8.4997 18.2662 8.01949 18.2662ZM7.99948 16.8923C8.17956 16.8923 8.35964 16.8389 8.51304 16.7122C11.3209 14.4379 17.2501 13.5041 20.4048 15.7584C20.5782 15.8852 20.7917 15.9319 20.9984 15.8985C21.2052 15.8652 21.3919 15.7518 21.512 15.5784C21.612 15.445 21.6587 15.2849 21.6587 15.1182C21.6587 14.8581 21.532 14.618 21.3252 14.4712C18.1639 12.2169 13.0283 12.6371 9.58683 14.2244C9.51347 14.2578 9.4401 14.2778 9.36674 14.2845C9.26002 14.3045 8.6531 14.4579 8.6531 15.7118C8.6531 16.0986 8.51304 16.4454 8.23959 16.7122C8.16622 16.7722 8.08619 16.8389 7.99948 16.8923Z" fill="#24005E"/>
<path d="M14.1694 26.5497H9.43403C9.05387 26.5497 8.74707 26.2429 8.74707 25.8627C8.74707 25.4826 9.05387 25.1758 9.43403 25.1758H14.1694C14.5496 25.1758 14.8564 25.4826 14.8564 25.8627C14.8564 26.2362 14.5429 26.5497 14.1694 26.5497Z" fill="#24005E"/>
<path d="M9.94046 24.5155H7.69282C7.31266 24.5155 7.00586 24.2087 7.00586 23.8286C7.00586 23.4484 7.31266 23.1416 7.69282 23.1416H9.94046C10.3206 23.1416 10.6274 23.4484 10.6274 23.8286C10.6274 24.2087 10.3206 24.5155 9.94046 24.5155Z" fill="#24005E"/>
<path d="M8.42678 22.4213H6.17915C5.79899 22.4213 5.49219 22.1145 5.49219 21.7343C5.49219 21.3542 5.79899 21.0474 6.17915 21.0474H8.42678C8.80695 21.0474 9.11375 21.3542 9.11375 21.7343C9.11375 22.1145 8.80695 22.4213 8.42678 22.4213Z" fill="#24005E"/>
<path d="M7.66604 20.227H5.41841C5.03824 20.227 4.73145 19.9202 4.73145 19.54C4.73145 19.1598 5.03824 18.853 5.41841 18.853H7.66604C8.04621 18.853 8.353 19.1598 8.353 19.54C8.353 19.9202 8.04621 20.227 7.66604 20.227Z" fill="#24005E"/>
</svg>
