<svg width="48" height="55" viewBox="0 0 48 55" fill="none" xmlns="http://www.w3.org/2000/svg">
<path d="M34.3988 28.1505C34.3388 31.2852 32.8715 37.141 32.6514 38.4083L32.3313 40.3224C32.3313 40.3224 30.8973 45.8515 34.3721 50.6535L36.6064 53.4147L8.82781 53.5414L10.095 51.1671C13.5699 46.365 12.1359 40.836 12.1359 40.836L9.99498 28.1572L10.9621 33.913C10.9621 33.913 9.90828 45.6914 7.15376 51.1671L6.18667 53.5414H0.791016L1.22454 51.1671C2.08491 45.1578 3.78564 39.7155 3.78564 39.7155C3.78564 37.7146 4.8661 22.9549 4.8661 22.9549C4.8661 19.5668 7.14708 16.4521 10.0417 15.3383L17.6116 14.4446L18.2252 9.22902L26.8222 8.97559V11.8835C26.8222 13.6376 28.3229 15.0582 30.1703 15.0582H31.4442C36.0395 15.0582 39.7945 18.6197 39.7945 22.9749C39.7945 22.9749 40.1813 27.7637 40.5148 32.2723L40.8283 40.5425L32.3179 40.3091L34.3988 28.1505Z" fill="white"/>
<path d="M15.6846 34.0264C15.5046 34.0264 15.3312 33.9598 15.1978 33.8197C14.931 33.5462 14.9376 33.1127 15.2044 32.8459C17.1719 30.9051 18.4792 28.3373 18.886 25.6028C18.9394 25.2293 19.2995 24.9692 19.6664 25.0226C20.0398 25.0759 20.3 25.4294 20.2466 25.8029C19.7997 28.8242 18.3525 31.6721 16.1715 33.8197C16.0315 33.9598 15.858 34.0264 15.6846 34.0264Z" fill="#24005E"/>
<path d="M28.6561 34.0264C28.4827 34.0264 28.3093 33.9597 28.1759 33.8263C25.995 31.6787 24.5477 28.8308 24.1008 25.8095C24.0475 25.436 24.3009 25.0825 24.6811 25.0292C25.0479 24.9758 25.4081 25.2293 25.4614 25.6094C25.8683 28.3373 27.1755 30.9117 29.143 32.8525C29.4165 33.1193 29.4165 33.5528 29.1497 33.8263C29.0163 33.953 28.8362 34.0264 28.6561 34.0264Z" fill="#24005E"/>
<path d="M22.2327 10.2828C22.2327 10.2828 21.159 17.1391 14.9963 16.5322L10.5344 15.6985C10.1209 15.6184 9.92078 15.1516 10.1475 14.7981C10.3476 14.4846 10.5477 14.2312 10.5477 14.2312C12.4485 11.4566 14.9163 10.5162 17.2173 8.71545L22.2327 10.2828Z" fill="#FF6200"/>
<path d="M15.7435 17.259C15.4767 17.259 15.21 17.2457 14.9298 17.219C14.9098 17.219 14.8898 17.2123 14.8698 17.2123L10.4079 16.3786C9.98772 16.2986 9.6409 16.0185 9.46749 15.6317C9.30075 15.2382 9.3341 14.7913 9.56754 14.4311C9.78763 14.091 10.0011 13.8109 10.0011 13.8109C11.375 11.81 13.0624 10.7029 14.6964 9.63574C15.39 9.18221 16.1104 8.71535 16.7906 8.17512C17.0908 7.94168 17.5243 7.99504 17.7577 8.28849C17.9912 8.58862 17.9378 9.02214 17.6377 9.25558C16.9107 9.82916 16.1704 10.316 15.4501 10.7829C13.8561 11.8233 12.3554 12.8104 11.1149 14.6246C11.0882 14.6646 10.9548 14.8313 10.8081 15.0514L15.0966 15.8517C20.5056 16.3653 21.5194 10.4294 21.5594 10.176C21.6194 9.80248 21.9729 9.54236 22.3464 9.60239C22.7199 9.66242 22.98 10.0159 22.92 10.3894C22.5265 12.8505 20.5389 17.259 15.7435 17.259Z" fill="#24005E"/>
<path d="M31.8307 0.865234C31.2171 6.18086 27.1553 10.2826 22.2332 10.2826C17.3111 10.2826 13.2493 6.17419 12.6357 0.865234H31.8307Z" fill="#FF6200"/>
<path d="M22.2331 10.9696C17.0309 10.9696 12.6157 6.66112 11.9554 0.945329C11.9087 0.565166 12.1822 0.225018 12.5623 0.185C12.9291 0.144983 13.2826 0.411763 13.3226 0.791927C13.9029 5.81409 17.7312 9.60238 22.2331 9.60238C26.7351 9.60238 30.5634 5.81409 31.1437 0.791927C31.1903 0.411763 31.5371 0.144983 31.904 0.185C32.2841 0.231687 32.5509 0.571835 32.5109 0.945329C31.8506 6.66112 27.4287 10.9696 22.2331 10.9696Z" fill="#24005E"/>
<path d="M40.8354 41.2493C40.4686 41.2493 40.1618 40.9559 40.1484 40.589L39.835 32.3188C39.5015 27.8435 39.1213 23.0482 39.1213 23.0482C39.1213 19.0064 35.6798 15.765 31.4514 15.765H30.1775C27.9499 15.765 26.1357 14.0309 26.1357 11.9033V8.99543C26.1357 8.61527 26.4425 8.30847 26.8227 8.30847C27.2029 8.30847 27.5097 8.61527 27.5097 8.99543V11.9033C27.5097 13.2773 28.7035 14.3911 30.1708 14.3911H31.4447C36.4268 14.3911 40.4819 18.2527 40.4886 22.9948C40.4886 22.9948 40.8754 27.7635 41.2022 32.2454L41.5157 40.5424C41.529 40.9225 41.2356 41.2426 40.8554 41.256C40.8554 41.2493 40.8487 41.2493 40.8354 41.2493Z" fill="#24005E"/>
<path d="M36.6065 54.1082C36.4064 54.1082 36.2064 54.0215 36.073 53.8547L33.8387 51.0936C30.2905 46.1914 31.531 40.7024 31.6577 40.1822L31.9779 38.2947C32.0312 37.9879 32.1513 37.421 32.3114 36.694C32.8182 34.3663 33.6719 30.4647 33.712 28.137C33.7186 27.7635 34.0254 27.4634 34.3989 27.4634C34.7924 27.47 35.0925 27.7835 35.0859 28.1637C35.0392 30.6247 34.1721 34.6065 33.6519 36.9875C33.4985 37.6878 33.3785 38.2347 33.3318 38.5281L33.0117 40.4423C33.0117 40.4623 33.005 40.4823 32.9983 40.5023C32.985 40.5557 31.6977 45.7913 34.9325 50.2599L37.1401 52.9944C37.3802 53.2878 37.3335 53.7214 37.0401 53.9615C36.9067 54.0615 36.7533 54.1082 36.6065 54.1082Z" fill="#24005E"/>
<path d="M0.797614 54.2349C0.757597 54.2349 0.717578 54.2282 0.670891 54.2216C0.297397 54.1549 0.0506292 53.7947 0.117325 53.4212L0.550845 51.0469C1.34452 45.5178 2.86517 40.389 3.10527 39.6153C3.13862 37.2609 4.14573 23.5017 4.18574 22.9081C4.18574 19.4199 6.54676 15.9518 9.80149 14.7046C10.155 14.5712 10.5552 14.7446 10.6885 15.0981C10.8219 15.4516 10.6485 15.8517 10.295 15.9851C7.54719 17.0389 5.55967 19.9668 5.55967 22.9548C5.54633 23.1549 4.4792 37.7612 4.4792 39.7153C4.4792 39.782 4.46586 39.8554 4.44586 39.9221C4.42585 39.9754 2.75179 45.3844 1.90476 51.267L1.46457 53.668C1.41121 54.0081 1.11775 54.2349 0.797614 54.2349Z" fill="#24005E"/>
<path d="M6.18683 54.2349C6.10013 54.2349 6.01342 54.2216 5.92672 54.1816C5.57323 54.0415 5.4065 53.6347 5.54656 53.2879L6.51364 50.9135C9.07474 45.8113 10.1619 35.02 10.2686 33.9395L9.31485 28.2704C9.25482 27.8969 9.5016 27.5434 9.88176 27.4768C10.2619 27.4167 10.6087 27.6635 10.6754 28.0437L12.8097 40.6958C12.9364 41.2093 14.1703 46.6717 10.6821 51.5338L9.44156 53.8681C9.26149 54.2016 8.84798 54.3283 8.5145 54.1549C8.18103 53.9748 8.0543 53.5613 8.22771 53.2278L9.49492 50.8535C9.50826 50.8268 9.52827 50.8001 9.54161 50.7734C12.7763 46.3049 11.4891 41.0693 11.4758 41.0159C11.4691 40.9959 11.4691 40.9759 11.4624 40.9559L11.0823 38.7016C10.502 42.65 9.45491 48.1523 7.78085 51.4871L6.84044 53.8148C6.72039 54.0749 6.46028 54.2349 6.18683 54.2349Z" fill="#24005E"/>
<path d="M15.6837 34.0263C15.5036 34.0263 15.3302 33.9596 15.1968 33.8196C14.93 33.5461 14.9367 33.1126 15.2035 32.8458C17.171 30.905 18.4782 28.3372 18.885 25.6027C18.9384 25.2292 19.2985 24.9691 19.6654 25.0224C20.0389 25.0758 20.299 25.4293 20.2456 25.8028C19.7988 28.8241 18.3515 31.672 16.1705 33.8196C16.0305 33.9596 15.8571 34.0263 15.6837 34.0263Z" fill="#24005E"/>
<path d="M28.6561 34.0263C28.4827 34.0263 28.3093 33.9596 28.1759 33.8262C25.995 31.6786 24.5477 28.8307 24.1008 25.8094C24.0475 25.4359 24.3009 25.0824 24.6811 25.0291C25.0479 24.9757 25.4081 25.2291 25.4614 25.6093C25.8683 28.3371 27.1755 30.9116 29.143 32.8524C29.4165 33.1192 29.4165 33.5527 29.1497 33.8262C29.0163 33.9529 28.8362 34.0263 28.6561 34.0263Z" fill="#24005E"/>
<path d="M33.9442 52.0607C38.6812 52.0607 42.5212 49.3852 42.5212 46.0848C42.5212 42.7844 38.6812 40.1089 33.9442 40.1089C29.2073 40.1089 25.3672 42.7844 25.3672 46.0848C25.3672 49.3852 29.2073 52.0607 33.9442 52.0607Z" fill="#0097F4"/>
<path d="M33.9447 52.7543C28.8358 52.7543 24.6807 49.7663 24.6807 46.0847C24.6807 42.4098 28.8358 39.4219 33.9447 39.4219C39.0535 39.4219 43.2153 42.4098 43.2153 46.0847C43.2086 49.7663 39.0535 52.7543 33.9447 52.7543ZM33.9447 40.7958C29.5961 40.7958 26.0546 43.1701 26.0546 46.0847C26.0546 48.9993 29.5961 51.3737 33.9447 51.3737C38.2932 51.3737 41.8347 48.9993 41.8347 46.0847C41.8347 43.1701 38.2932 40.7958 33.9447 40.7958Z" fill="#24005E"/>
<path d="M46.4562 43.5839H44.3286L43.8551 43.5773L43.8017 43.4706C43.6216 43.1571 43.4149 42.8703 43.1881 42.5968C43.1881 42.5968 41.8475 40.9628 39.8667 40.2092L37.6657 39.2954C37.6657 39.2954 36.2051 38.7819 34.5711 38.6285C33.9908 38.5751 33.484 39.0086 33.4573 39.5889L33.4506 39.6689C33.4239 40.2092 33.8308 40.6627 34.371 40.7227C35.2114 40.8161 36.0317 41.1162 36.1518 41.9032C36.1518 41.9032 35.965 42.6169 34.9846 42.7903H30.8161C30.1692 42.7903 29.6356 43.3038 29.6156 43.9508C29.5956 44.6244 30.1358 45.1846 30.8161 45.1846L36.4185 45.1913L31.8299 45.198H29.9958C29.4422 45.198 29.0154 45.7249 29.0487 46.3785C29.0821 47.0254 29.5623 47.559 30.1158 47.559L36.8788 47.5656L31.2563 47.559C30.6427 47.559 30.1625 48.0592 30.1959 48.6795C30.2292 49.2931 30.7561 49.7999 31.3764 49.7999L36.6386 49.8066L32.15 49.7866C31.5498 49.7866 31.0829 50.2735 31.1163 50.8804V50.9338C31.1496 51.534 31.6632 52.0276 32.2634 52.0276L36.8987 52.0342L39.3932 51.9075C41.0272 51.8141 42.4545 50.9738 43.3882 49.7266L43.8351 49.7666L44.2419 49.7733L46.4228 49.7999V43.5839H46.4562Z" fill="white"/>
<path d="M36.9654 52.7144L32.2967 52.7077C31.3363 52.7077 30.5092 51.9207 30.4626 50.9603C30.4492 50.7069 30.4759 50.4734 30.5493 50.2667C29.9823 49.9665 29.5755 49.3796 29.5422 48.706C29.5288 48.5126 29.5555 48.3192 29.6022 48.1391C28.9352 47.8923 28.435 47.2054 28.3883 46.405C28.3617 45.8714 28.5417 45.3579 28.8819 44.9977C28.9552 44.9177 29.0419 44.851 29.1286 44.7843C29.0019 44.5175 28.9419 44.2241 28.9486 43.9239C28.9819 42.8968 29.8089 42.0965 30.8361 42.0965H34.9378C35.1979 42.0431 35.3447 41.9298 35.4247 41.8364C35.2446 41.5629 34.7377 41.4495 34.3109 41.3962C33.4105 41.2961 32.7369 40.5158 32.7836 39.6288L32.7902 39.5487C32.8102 39.0819 33.017 38.655 33.3705 38.3482C33.724 38.0414 34.1908 37.8947 34.6577 37.9414C36.3518 38.1014 37.8457 38.6217 37.9124 38.6417L40.1467 39.5687C42.2543 40.3757 43.6749 42.0832 43.7349 42.1565C43.9283 42.3833 44.1151 42.6301 44.2752 42.8902H44.3485H46.4628C46.8429 42.8902 47.1497 43.197 47.1497 43.5771C47.1497 43.9573 46.8429 44.2641 46.4628 44.2641L43.855 44.2574C43.5882 44.2508 43.3548 44.0974 43.2414 43.8573L43.188 43.7439C43.0613 43.5238 42.8812 43.2703 42.6745 43.0302C42.6545 43.0035 41.4073 41.5162 39.6332 40.8359L37.4189 39.9155C37.4122 39.9155 36.0316 39.442 34.5243 39.2953C34.3909 39.2819 34.3109 39.342 34.2709 39.3753C34.2308 39.4087 34.1641 39.482 34.1641 39.6021L34.1575 39.6821C34.1508 39.8555 34.2842 39.9956 34.4643 40.0156C36.3384 40.229 36.7653 41.2094 36.8453 41.783C36.8587 41.8764 36.852 41.9698 36.832 42.0565C36.7186 42.4767 36.2384 43.2503 35.1179 43.4437C35.0779 43.4504 35.0379 43.4571 34.9978 43.4571H30.8294C30.5493 43.4571 30.3292 43.6772 30.3158 43.9506C30.3092 44.0907 30.3625 44.2241 30.4626 44.3241C30.5626 44.4242 30.6893 44.4775 30.8294 44.4775L36.4318 44.4842C36.812 44.4842 37.1188 44.791 37.1188 45.1711C37.1188 45.5513 36.812 45.8581 36.4318 45.8581L31.8432 45.8648H30.009C30.0224 45.8714 29.9357 45.8648 29.8756 45.9315C29.7889 46.0182 29.7489 46.1649 29.7556 46.3183C29.7689 46.6184 29.9757 46.8519 30.1358 46.8519L36.8987 46.8585C37.2788 46.8585 37.5856 47.1653 37.5856 47.5455C37.5856 47.9257 37.2788 48.2325 36.8987 48.2325L31.2762 48.2258C31.1695 48.2258 31.0762 48.2658 31.0028 48.3392C30.9361 48.4125 30.8961 48.5126 30.9027 48.6193C30.9161 48.8661 31.1495 49.0862 31.3963 49.0862H31.9632C32.0366 49.0795 32.0966 49.0728 32.1766 49.0728L36.6652 49.0928C37.0454 49.0928 37.3522 49.3996 37.3522 49.7798C37.3522 50.16 37.0454 50.4668 36.6652 50.4668L32.0766 50.4601C32.0166 50.4734 31.9632 50.5068 31.9232 50.5535C31.8565 50.6202 31.8231 50.7135 31.8298 50.8136C31.8431 51.107 32.0632 51.3138 32.2967 51.3138L36.932 51.3205L39.3931 51.2004C40.7537 51.127 42.0275 50.4267 42.8746 49.2996C43.0146 49.1128 43.2414 49.0061 43.4815 49.0261L44.2885 49.0661L46.4694 49.0928C46.8496 49.0995 47.1564 49.4063 47.1497 49.7865C47.1431 50.1666 46.8296 50.4401 46.4561 50.4668L43.7416 50.4267C42.6545 51.7073 41.1205 52.481 39.4731 52.5743L36.9654 52.7144Z" fill="#24005E"/>
<path d="M33.4635 39.4885C33.3235 39.5352 33.1901 39.6086 33.07 39.7086C32.5164 40.1622 32.4297 40.9758 32.8766 41.5294C34.7174 43.8037 35.4577 48.7058 33.6903 51.1802C33.2768 51.7605 33.4102 52.5742 33.9904 52.9877C34.2172 53.1477 34.484 53.2278 34.7441 53.2278C35.1509 53.2278 35.5444 53.041 35.7979 52.6875C37.8387 49.833 37.5853 45.1243 36.0713 41.8429C36.0713 41.8429 35.9579 40.6757 34.2305 40.6757C33.4502 40.6757 33.4635 39.4885 33.4635 39.4885Z" fill="#FF8AB9"/>
<path d="M34.7444 53.9216C34.3308 53.9216 33.9307 53.7948 33.5905 53.5547C32.7035 52.9211 32.4967 51.6806 33.1303 50.7869C34.7043 48.5793 34.004 44.0173 32.3433 41.9698C32.0098 41.5562 31.8564 41.0427 31.9098 40.5158C31.9632 39.9889 32.2233 39.5154 32.6368 39.1819C32.8168 39.0352 33.0236 38.9218 33.2437 38.8484C33.4571 38.775 33.6906 38.8084 33.8706 38.9418C34.0507 39.0752 34.1574 39.2819 34.1574 39.502C34.1574 39.6954 34.2175 39.9555 34.2775 40.0156C35.9849 39.9822 36.6118 41.0093 36.7385 41.6496C38.2459 44.991 38.5927 49.9665 36.3584 53.0945C35.9849 53.6081 35.3846 53.9216 34.7444 53.9216ZM33.3771 41.0494C33.3904 41.0627 33.3971 41.0827 33.4104 41.096C35.418 43.5704 36.2383 48.7994 34.2508 51.5806C34.0574 51.854 34.1174 52.2342 34.3909 52.4276C34.6576 52.6143 35.0511 52.5476 35.2379 52.2875C37.1654 49.5864 36.7852 45.0377 35.4447 42.1298C35.4113 42.0564 35.3913 41.9831 35.3846 41.9097C35.3713 41.8364 35.2379 41.3628 34.2308 41.3628C33.904 41.3628 33.6105 41.2561 33.3771 41.0494Z" fill="#24005E"/>
<path d="M25.3608 46.7717C24.9806 46.7717 24.6738 46.4649 24.6738 46.0848V41.9497C24.6738 41.5695 24.9806 41.2627 25.3608 41.2627C25.7409 41.2627 26.0477 41.5695 26.0477 41.9497V46.0848C26.0477 46.4649 25.7409 46.7717 25.3608 46.7717Z" fill="#24005E"/>
<path d="M27.1342 43.0835C26.7541 43.0835 26.4473 42.7767 26.4473 42.3966V40.4357C26.4473 40.0556 26.7541 39.7488 27.1342 39.7488C27.5144 39.7488 27.8212 40.0556 27.8212 40.4357V42.3966C27.8212 42.7767 27.5144 43.0835 27.1342 43.0835Z" fill="#24005E"/>
<path d="M28.9623 41.763C28.5822 41.763 28.2754 41.4562 28.2754 41.076V39.1152C28.2754 38.735 28.5822 38.4282 28.9623 38.4282C29.3425 38.4282 29.6493 38.735 29.6493 39.1152V41.076C29.6493 41.4562 29.3425 41.763 28.9623 41.763Z" fill="#24005E"/>
<path d="M30.8833 41.1027C30.5031 41.1027 30.1963 40.7959 30.1963 40.4157V38.4549C30.1963 38.0747 30.5031 37.7679 30.8833 37.7679C31.2634 37.7679 31.5702 38.0747 31.5702 38.4549V40.4157C31.5702 40.7959 31.2634 41.1027 30.8833 41.1027Z" fill="#24005E"/>
</svg>
