<svg width="50" height="48" viewBox="0 0 50 48" fill="none" xmlns="http://www.w3.org/2000/svg">
<path d="M41.6497 10.1331C40.7426 9.86637 39.8222 9.45952 38.6551 8.79256C37.6613 8.22565 36.9277 7.7121 36.2807 7.26525C35.1536 6.47824 34.2598 5.85796 32.4924 5.2377C31.0451 4.73081 29.8446 2.26309 29.5645 1.64282H21.3543C21.0675 2.26309 19.8737 4.73081 18.4264 5.2377C16.6589 5.85796 15.7652 6.47824 14.6381 7.26525C13.9911 7.7121 13.2641 8.22565 12.2637 8.79256C11.1032 9.45285 10.1828 9.86637 9.26909 10.1331C5.54748 11.2136 3.70002 14.0015 3.2665 19.177C2.07265 24.5994 1.5591 28.261 2.07932 33.1431H10.2162C10.6964 32.1426 11.6835 29.9483 11.8902 25.4397C11.8969 25.313 12.0169 25.213 12.1303 25.2196C12.2437 25.2263 12.3371 25.313 12.3437 25.4264C12.3504 25.4397 12.3638 25.4597 12.3704 25.4731C13.3175 28.9613 13.771 32.236 14.2979 36.0309L14.3846 36.6646C14.5847 38.9455 14.4046 41.0398 14.2045 43.2541C14.1045 44.3545 14.0045 45.4817 13.9578 46.6422H36.9677C36.921 45.4817 36.8209 44.3545 36.7209 43.2541C36.5275 41.0398 36.3407 38.9522 36.5408 36.6779L36.6275 36.0309C37.1611 32.216 37.6146 28.9212 38.575 25.413C38.575 25.393 38.575 25.373 38.5684 25.353C38.5617 25.2263 38.6617 25.1196 38.7885 25.1129C38.9085 25.1062 39.0219 25.2063 39.0286 25.333C39.0286 25.353 39.0286 25.373 39.0286 25.393C39.2353 29.9417 40.2157 32.1493 40.7026 33.1497H48.8395C49.3597 28.2743 48.8461 24.6127 47.6523 19.2171C47.2188 14.0015 45.3713 11.2136 41.6497 10.1331Z" fill="white"/>
<path d="M1.87254 34.0569C1.52573 34.0569 1.23227 33.7968 1.19225 33.4433C0.625342 28.3478 1.1389 24.5928 2.35942 19.0504C2.65288 15.5756 3.67332 10.8002 9.01562 9.25287C9.85598 9.01277 10.7164 8.61928 11.8102 7.99901C12.7706 7.45211 13.4509 6.97856 14.1111 6.51836C15.2516 5.72468 16.2387 5.03773 18.1195 4.37745C19.0399 4.05731 20.1137 2.22319 20.5739 1.14272C20.7207 0.795906 21.1275 0.629166 21.4743 0.782565C21.8211 0.929295 21.9879 1.33614 21.8345 1.68295C21.6877 2.0231 20.3538 5.0444 18.5731 5.67133C16.8657 6.27159 15.992 6.87852 14.8915 7.64552C14.2379 8.09905 13.4975 8.61927 12.4838 9.19285C11.2899 9.87314 10.3362 10.3 9.38911 10.5734C5.88094 11.5939 4.12685 14.255 3.72001 19.2105C3.72001 19.2438 3.71334 19.2705 3.70667 19.3039C2.51282 24.7262 2.00594 28.3744 2.55284 33.2899C2.59286 33.6701 2.32607 34.0102 1.94591 34.0502C1.9259 34.0502 1.89922 34.0569 1.87254 34.0569Z" fill="#24005E"/>
<path d="M49.0464 34.0568C49.0198 34.0568 48.9931 34.0568 48.9664 34.0501C48.5862 34.0101 48.3195 33.6699 48.3595 33.2898C48.9064 28.3743 48.3995 24.7194 47.2056 19.3038C47.199 19.2704 47.1923 19.2437 47.1923 19.2104C46.7788 14.2549 45.0314 11.5938 41.5232 10.5733C40.5761 10.2999 39.6224 9.87302 38.4285 9.19273C37.4148 8.61248 36.6744 8.09893 36.0208 7.6454C34.9204 6.8784 34.0533 6.27147 32.3392 5.67121C30.5585 5.04427 29.2246 2.02298 29.0778 1.68283C28.9311 1.33601 29.0912 0.929173 29.438 0.782443C29.7848 0.629044 30.1917 0.795784 30.3384 1.1426C30.7986 2.22307 31.8724 4.05052 32.7928 4.37733C34.6803 5.03761 35.6607 5.72456 36.8012 6.51824C37.4614 6.97844 38.1417 7.45199 39.1022 7.99889C40.196 8.62582 41.0563 9.01265 41.8967 9.25275C47.239 10.8068 48.2594 15.5755 48.5529 19.0503C49.7734 24.5927 50.287 28.3477 49.7201 33.4432C49.6934 33.7967 49.3932 34.0568 49.0464 34.0568Z" fill="#24005E"/>
<path d="M10.3562 34.0569C10.2562 34.0569 10.1495 34.0369 10.0561 33.9902C9.71595 33.8235 9.56922 33.41 9.73596 33.0698C10.1828 32.1494 11.2299 30.0018 11.43 25.3065C11.4434 24.9263 11.7768 24.6329 12.1437 24.6462C12.5238 24.6595 12.8173 24.9797 12.8039 25.3598C12.6172 29.7751 11.7302 32.1161 10.9765 33.6634C10.8564 33.9102 10.6097 34.0569 10.3562 34.0569Z" fill="#24005E"/>
<path d="M40.5624 34.0568C40.309 34.0568 40.0622 33.9168 39.9421 33.67C39.1885 32.1227 38.3014 29.775 38.1147 25.3664C38.1014 24.9863 38.3948 24.6661 38.775 24.6528C39.1618 24.6394 39.4753 24.9329 39.4886 25.3131C39.6887 30.0017 40.7358 32.156 41.1827 33.0764C41.3494 33.4166 41.2094 33.8301 40.8625 33.9968C40.7692 34.0301 40.6625 34.0568 40.5624 34.0568Z" fill="#24005E"/>
<path d="M13.7178 47.5492C13.311 47.5359 13.0175 47.2157 13.0308 46.8356C13.0775 45.5683 13.1842 44.3478 13.2909 43.1607C13.4844 40.9864 13.6644 38.9388 13.471 36.7446L13.3843 36.1443C12.8041 31.9825 12.3039 28.3943 11.1434 24.526C11.0166 24.2058 10.8499 23.8257 10.6832 23.4455C10.1496 22.225 9.54267 20.8377 9.42262 19.1903C9.39594 18.8102 9.68273 18.4834 10.0562 18.4567C10.4431 18.43 10.7632 18.7168 10.7899 19.0903C10.8899 20.4976 11.4235 21.7181 11.937 22.8919C12.1104 23.2921 12.2838 23.6789 12.4372 24.0724C13.6511 28.0942 14.158 31.7357 14.7449 35.9509L14.8316 36.5845C15.0384 38.9322 14.845 41.1398 14.6582 43.274C14.5582 44.4412 14.4448 45.6484 14.4048 46.8756C14.3914 47.2624 14.0846 47.5492 13.7178 47.5492Z" fill="#24005E"/>
<path d="M37.2012 47.5492C36.8344 47.5492 36.5276 47.2557 36.5143 46.8889C36.4676 45.6617 36.3609 44.4545 36.2608 43.2874C36.0741 41.1531 35.874 38.9388 36.0807 36.6312L36.1741 35.9642C36.761 31.7491 37.2679 28.1075 38.4618 24.1391C38.6352 23.6923 38.8019 23.3054 38.9753 22.9053C39.4889 21.7314 40.0224 20.5109 40.1225 19.1036C40.1492 18.7235 40.4693 18.4433 40.8561 18.47C41.2363 18.4967 41.5231 18.8235 41.4897 19.2037C41.3697 20.851 40.7628 22.2383 40.2292 23.4588C40.0625 23.839 39.8957 24.2125 39.749 24.586C38.6018 28.4076 38.1016 31.9958 37.528 36.1576L37.4413 36.7912C37.2479 38.9455 37.4347 40.9997 37.6281 43.174C37.7348 44.3545 37.8415 45.5817 37.8882 46.8489C37.9015 47.2291 37.6081 47.5492 37.2279 47.5625C37.2212 47.5492 37.2146 47.5492 37.2012 47.5492Z" fill="#24005E"/>
<path d="M25.4624 46.689C25.0822 46.689 24.7754 46.3822 24.7754 46.002V34.1502C24.7754 33.7701 25.0822 33.4633 25.4624 33.4633C25.8425 33.4633 26.1493 33.7701 26.1493 34.1502V46.002C26.1493 46.3755 25.8425 46.689 25.4624 46.689Z" fill="#24005E"/>
<path d="M25.4624 28.3877C25.0822 28.3877 24.7754 28.0809 24.7754 27.7007V21.0778C24.7754 20.6977 25.0822 20.3909 25.4624 20.3909C25.8425 20.3909 26.1493 20.6977 26.1493 21.0778V27.7007C26.1493 28.0809 25.8425 28.3877 25.4624 28.3877Z" fill="#24005E"/>
<path d="M19.8139 42.1269C19.4338 42.1269 19.127 41.8201 19.127 41.44C19.127 40.3462 19.1603 39.1857 19.1937 37.9585C19.3737 31.2089 19.6005 22.8053 14.585 17.1562C14.3316 16.8694 14.3582 16.4359 14.645 16.1824C14.9318 15.929 15.3653 15.9557 15.6188 16.2424C20.9944 22.2984 20.761 31.0021 20.5743 37.9918C20.5409 39.2057 20.5076 40.3595 20.5076 41.4333C20.5009 41.8201 20.1941 42.1269 19.8139 42.1269Z" fill="#24005E"/>
<path d="M15.2244 20.0441C14.9043 20.0441 14.6108 19.8173 14.5508 19.4905L13.8839 16.0757C13.8372 15.8223 13.9306 15.5622 14.1373 15.4021C14.3374 15.242 14.6175 15.2087 14.851 15.3154L17.8389 16.6893C18.1857 16.8494 18.3325 17.2562 18.1791 17.6031C18.019 17.9499 17.6121 18.0966 17.2653 17.9432L15.4979 17.1295L15.9047 19.2237C15.9781 19.5972 15.7313 19.9574 15.3578 20.0308C15.3178 20.0441 15.2711 20.0441 15.2244 20.0441Z" fill="#24005E"/>
<path d="M9.27583 15.2554C8.89567 15.2554 8.58887 14.9486 8.58887 14.5685C8.58887 14.4217 8.62221 11.0203 11.6702 8.09903C11.9436 7.83891 12.3772 7.84557 12.6439 8.11902C12.9041 8.39247 12.8974 8.826 12.6239 9.09278C9.99614 11.6139 9.96279 14.5418 9.96279 14.5751C9.96279 14.9486 9.65599 15.2554 9.27583 15.2554Z" fill="#24005E"/>
<path d="M8.96883 16.5694C8.92214 16.5694 8.88212 16.5627 8.83543 16.5561C8.602 16.5094 8.40859 16.3493 8.32855 16.1225L7.16805 13.0479C7.03466 12.6944 7.21474 12.2942 7.56822 12.1608C7.92171 12.0275 8.32188 12.2075 8.45527 12.561L9.22227 14.6019L10.963 12.7411C11.2231 12.461 11.6566 12.4476 11.9368 12.7077C12.2169 12.9679 12.2302 13.4014 11.9701 13.6815L9.47571 16.3493C9.34232 16.4961 9.15557 16.5694 8.96883 16.5694Z" fill="#24005E"/>
<path d="M5.85458 32.8562C5.74786 32.8562 5.64115 32.8295 5.54111 32.7829C5.20096 32.6094 5.06757 32.1959 5.24098 31.8558C7.21516 28.0008 5.80122 21.8248 5.78788 21.7648C5.70118 21.398 5.92794 21.0245 6.30144 20.9378C6.67493 20.8511 7.04176 21.0778 7.12846 21.4513C7.19516 21.7248 8.66912 28.1875 6.46817 32.4827C6.34812 32.7228 6.10802 32.8562 5.85458 32.8562Z" fill="#24005E"/>
<path d="M4.85351 24.2793C4.78681 24.2793 4.72012 24.2659 4.64675 24.2459C4.2866 24.1326 4.07984 23.7457 4.19322 23.3856L5.2937 19.8507C5.36706 19.624 5.54714 19.4505 5.7739 19.3905C6.00067 19.3305 6.24744 19.3905 6.42085 19.5506L9.02864 21.985C9.30876 22.2451 9.3221 22.6786 9.06199 22.9587C8.80187 23.2388 8.36835 23.2522 8.08823 22.9921L6.28079 21.3047L5.50712 23.7991C5.41375 24.0925 5.14697 24.2793 4.85351 24.2793Z" fill="#24005E"/>
<path d="M30.8322 42.127C30.4521 42.127 30.1453 41.8202 30.1453 41.44C30.1453 40.3596 30.1119 39.2124 30.0786 37.9985C29.8918 31.0022 29.6584 22.3051 35.034 16.2492C35.2875 15.9624 35.721 15.9424 36.0078 16.1891C36.2946 16.4426 36.3146 16.8761 36.0678 17.1629C31.0523 22.812 31.2791 31.2089 31.4592 37.9652C31.4925 39.1924 31.5259 40.3462 31.5259 41.4467C31.5192 41.8202 31.2124 42.127 30.8322 42.127Z" fill="#24005E"/>
<path d="M35.4214 20.0441C35.3814 20.0441 35.3347 20.0374 35.288 20.0308C34.9145 19.9574 34.6744 19.5972 34.7411 19.2237L35.1479 17.1295L33.3805 17.9432C33.0337 18.1033 32.6269 17.9499 32.4668 17.6031C32.3067 17.2562 32.4601 16.8494 32.8069 16.6893L35.7949 15.3154C36.0283 15.2087 36.3018 15.242 36.5085 15.4021C36.7086 15.5622 36.8087 15.8223 36.762 16.0757L36.095 19.4905C36.0283 19.8173 35.7415 20.0441 35.4214 20.0441Z" fill="#24005E"/>
<path d="M41.3698 15.2554C40.9897 15.2554 40.6829 14.9486 40.6829 14.5684C40.6829 14.5418 40.6295 11.5938 38.0217 9.08606C37.7483 8.82595 37.7416 8.38577 38.0017 8.11232C38.2685 7.83887 38.702 7.83219 38.9755 8.0923C42.0235 11.0202 42.0568 14.4217 42.0568 14.5618C42.0568 14.9486 41.75 15.2554 41.3698 15.2554Z" fill="#24005E"/>
<path d="M41.677 16.5692C41.4903 16.5692 41.3035 16.4891 41.1768 16.3491L38.6824 13.6813C38.4223 13.4011 38.4356 12.9676 38.7157 12.7075C38.9959 12.4474 39.4294 12.4607 39.6895 12.7409L41.4302 14.6017L42.1972 12.5608C42.3306 12.2073 42.7241 12.0272 43.0843 12.1606C43.4378 12.294 43.6178 12.6942 43.4845 13.0477L42.324 16.1223C42.2373 16.3424 42.0505 16.5091 41.8171 16.5558C41.7637 16.5692 41.7237 16.5692 41.677 16.5692Z" fill="#24005E"/>
<path d="M44.7913 32.8562C44.5445 32.8562 44.2977 32.7162 44.1777 32.4827C41.9767 28.1809 43.4507 21.7248 43.5174 21.4513C43.6041 21.0845 43.9709 20.8511 44.3444 20.9378C44.7112 21.0245 44.9447 21.3913 44.858 21.7648C44.8446 21.8248 43.4307 28.0075 45.4049 31.8558C45.5783 32.196 45.4449 32.6095 45.1047 32.7829C45.0047 32.8362 44.898 32.8562 44.7913 32.8562Z" fill="#24005E"/>
<path d="M45.7913 24.2792C45.4978 24.2792 45.2243 24.0925 45.1376 23.7924L44.364 21.2979L42.5565 22.9853C42.2764 23.2455 41.8429 23.2321 41.5828 22.952C41.3227 22.6719 41.336 22.2384 41.6161 21.9782L44.2239 19.5439C44.3973 19.3838 44.6441 19.3238 44.8709 19.3838C45.0976 19.4438 45.2777 19.6172 45.3511 19.844L46.4515 23.3788C46.5649 23.739 46.3648 24.1258 45.998 24.2392C45.9313 24.2726 45.858 24.2792 45.7913 24.2792Z" fill="#24005E"/>
</svg>
