<svg width="24" height="32" viewBox="0 0 24 32" fill="none" xmlns="http://www.w3.org/2000/svg">
<path d="M24 0H0L4.55172 32H19.0345L24 0Z" fill="#DFE4E6"/>
<path fill-rule="evenodd" clip-rule="evenodd" d="M3 16C3 15.4477 3.44772 15 4 15H20C20.5523 15 21 15.4477 21 16C21 16.5523 20.5523 17 20 17H4C3.44772 17 3 16.5523 3 16Z" fill="#FF4500"/>
<path fill-rule="evenodd" clip-rule="evenodd" d="M12 7C12.5523 7 13 7.44772 13 8L13 24C13 24.5523 12.5523 25 12 25C11.4477 25 11 24.5523 11 24L11 8C11 7.44772 11.4477 7 12 7Z" fill="#FF4500"/>
</svg>
