<svg width="685" height="164" viewBox="0 0 685 164" fill="none" xmlns="http://www.w3.org/2000/svg">
<path d="M41.3995 72.2238V117.024H32.8875L10.5515 89.8238V117.024H0.311523V72.2238H8.88752L31.1595 99.4238V72.2238H41.3995Z" fill="black"/>
<path d="M86.687 108.704V117.024H51.999V72.2238H85.855V80.5438H62.303V90.2718H83.103V98.3358H62.303V108.704H86.687Z" fill="black"/>
<path d="M104.217 80.6718H89.8805V72.2238H128.921V80.6718H114.585V117.024H104.217V80.6718Z" fill="black"/>
<path d="M355.314 117.792C350.749 117.792 346.61 116.81 342.898 114.848C339.229 112.842 336.327 110.09 334.194 106.592C332.103 103.05 331.058 99.0611 331.058 94.6238C331.058 90.1865 332.103 86.2185 334.194 82.7198C336.327 79.1785 339.229 76.4265 342.898 74.4638C346.61 72.4585 350.77 71.4558 355.378 71.4558C359.261 71.4558 362.759 72.1385 365.874 73.5038C369.031 74.8691 371.677 76.8318 373.81 79.3918L367.154 85.5358C364.125 82.0371 360.37 80.2878 355.89 80.2878C353.117 80.2878 350.642 80.9065 348.466 82.1438C346.29 83.3385 344.583 85.0238 343.346 87.1998C342.151 89.3758 341.554 91.8505 341.554 94.6238C341.554 97.3971 342.151 99.8718 343.346 102.048C344.583 104.224 346.29 105.93 348.466 107.168C350.642 108.362 353.117 108.96 355.89 108.96C360.37 108.96 364.125 107.189 367.154 103.648L373.81 109.792C371.677 112.394 369.031 114.378 365.874 115.744C362.717 117.109 359.197 117.792 355.314 117.792Z" fill="black"/>
<path d="M415.5 108.704V117.024H380.812V72.2238H414.668V80.5438H391.116V90.2718H411.916V98.3358H391.116V108.704H415.5Z" fill="black"/>
<path d="M423.749 72.2238H434.117V108.576H456.581V117.024H423.749V72.2238Z" fill="black"/>
<path d="M462.374 72.2238H472.742V108.576H495.206V117.024H462.374V72.2238Z" fill="black"/>
<path d="M520.341 117.792C513.941 117.792 508.949 116.021 505.365 112.48C501.823 108.938 500.053 103.882 500.053 97.3118V72.2238H510.421V96.9278C510.421 104.949 513.749 108.96 520.405 108.96C523.647 108.96 526.122 108 527.828 106.08C529.535 104.117 530.388 101.066 530.388 96.9278V72.2238H540.629V97.3118C540.629 103.882 538.837 108.938 535.253 112.48C531.711 116.021 526.741 117.792 520.341 117.792Z" fill="black"/>
<path d="M550.874 72.2238H561.242V108.576H583.706V117.024H550.874V72.2238Z" fill="black"/>
<path d="M589.499 72.2238H599.867V117.024H589.499V72.2238Z" fill="black"/>
<path d="M619.779 80.6718H605.443V72.2238H644.483V80.6718H630.147V117.024H619.779V80.6718Z" fill="black"/>
<path d="M684.75 108.704V117.024H650.062V72.2238H683.918V80.5438H660.366V90.2718H681.166V98.3358H660.366V108.704H684.75Z" fill="black"/>
<path d="M226.32 163.024C271.231 163.024 307.64 126.704 307.64 81.9017C307.64 37.0993 271.231 0.779694 226.32 0.779694C181.408 0.779694 145 37.0993 145 81.9017C145 126.704 181.408 163.024 226.32 163.024Z" fill="#FF4500"/>
<path d="M303.059 86.1794C301.767 85.5781 300.269 84.8909 298.564 84.1522C280.843 76.3527 242.732 61.5095 220.998 52.662C226.75 47.7143 247.692 30.1052 251.17 26.8582C253.96 27.7 255.906 30.2083 258.782 30.8439C261.004 31.3421 262.812 30.277 264.104 28.5247C265.051 27.2534 265.86 25.8618 266.687 24.4875C267.324 23.4051 267.979 22.3228 268.719 21.292C270.648 18.5949 272.818 16.0523 275.16 13.6987C277.399 12.7881 279.5 11.4653 280.292 9.043C280.499 8.40735 279.379 6.15683 280.567 5.57272C280.705 5.504 282.324 4.79964 283.116 3.56271C283.598 2.82398 284.46 1.26064 283.185 0.0408896C282.841 -0.268343 281.274 1.965 278.036 3.47681C272.439 6.10529 263.174 10.9328 252.583 16.602C251.446 17.2205 250.275 17.839 249.104 18.4574C243.369 21.5326 180.959 45.8073 176.515 48.5045C173.329 50.4458 169.971 52.6105 168.025 55.8918C165.838 59.5854 166.458 63.7428 167.767 67.6254C169.351 72.3498 171.28 76.9883 173.174 81.5924C176.688 90.1994 180.476 98.6861 184.523 107.053C184.489 107.121 186.332 110.987 187.244 112.842C187.658 113.667 182.371 127.445 180.941 127.599C176.429 128.08 166.63 126.826 159.294 127.702C167.509 140.175 179.323 150.087 193.255 155.946C194.684 154.073 196.251 151.616 197.663 151.187C199.127 150.74 215.953 153.661 223.943 151.737C230.797 150.087 236.498 146.033 239.908 137.065C242.629 129.884 242.508 120.521 235.792 109.441C233.26 105.266 230.66 101.108 227.921 97.0712L206.515 70.168C210.235 72.3326 219.311 74.3083 223.323 74.8237C232.881 76.0434 262.588 79.8229 267.875 80.4929C269.012 83.1729 268.306 86.2653 269.649 88.8766C270.682 90.8866 272.663 91.6081 274.833 91.4879C277.674 91.3333 280.499 90.6289 283.357 90.4227C286.681 90.1822 290.005 90.2338 293.329 90.5258C294.913 91.3676 296.618 92.0204 298.374 91.9002C298.977 91.8658 299.597 91.7284 300.2 91.4879C300.82 91.2302 301.836 88.9453 303.059 89.4779C303.196 89.5466 304.781 90.3368 306.245 90.1479C307.123 90.0448 308.88 89.7012 309 87.9489C309.035 87.485 306.296 87.7084 303.059 86.1794Z" fill="#ECC19C"/>
<path d="M239.46 131.912C237.118 134.368 233.828 135.725 230.47 136.052C226.716 136.43 222.927 135.485 219.724 133.492C215.436 130.812 211.733 127.17 208.943 123.013C203.57 115.024 196.854 102.191 192.394 91.4708C186.314 76.9025 182.75 65.8388 182.405 64.2927C181.355 59.637 181.768 55.0157 184.386 52.4387C185.918 50.9269 188.57 49.5698 191.567 49.2262C194.254 48.9169 198.697 48.7795 203.949 49.3121C205.654 49.4839 209.064 50.1367 212.371 50.8239C216.865 51.7516 221.222 52.7308 220.981 52.6449C226.733 47.6972 247.675 30.0881 251.153 26.8412C253.943 27.683 255.889 30.1912 258.765 30.8268C260.987 31.325 262.795 30.2599 264.087 28.5076C265.034 27.2363 265.843 25.8447 266.67 24.4704C267.307 23.3881 267.961 22.3057 268.702 21.275C270.631 18.5778 272.801 16.0352 275.143 13.6816C277.382 12.7711 279.483 11.4482 280.275 9.02591C280.481 8.39027 279.362 6.13974 280.55 5.55563C280.688 5.48692 282.307 4.78255 283.099 3.54562C283.581 2.8069 284.442 1.24356 283.168 0.0238041C282.944 -0.182351 283.616 0.968682 282.255 2.77254C281.515 3.76896 280.137 4.93717 277.674 6.19128C277.76 8.06385 277.158 10.3487 271.078 11.4482C269.718 12.7882 263.828 16.5334 261.452 18.509C261.624 19.8491 261.279 21.2921 260.625 22.4432C259.747 23.9722 258.248 24.5906 256.526 24.247C255.493 24.0409 254.494 23.6457 253.444 23.4224C252.29 23.1819 251.136 23.1475 249.982 23.3537C248.57 23.6114 246.986 24.0065 245.625 24.7109C238.134 30.7581 223.909 42.9556 223.909 42.9556C223.909 42.9556 217.193 46.3572 209.098 44.5361C202.778 43.1102 194.77 44.5877 189.397 46.2541C181.406 48.728 177.273 52.2498 176.86 52.5075C173.674 54.4488 169.265 59.0872 167.991 55.8575C165.804 59.5511 166.424 63.7086 167.732 67.5911C169.317 72.3155 171.246 76.954 173.14 81.5582C176.688 90.1995 180.476 98.6862 184.523 107.053C184.489 107.121 186.332 110.987 187.244 112.842C187.658 113.667 182.371 127.445 180.941 127.599C176.429 128.08 166.63 126.826 159.294 127.703C167.509 140.175 179.323 150.088 193.255 155.946C194.701 153.231 196.251 151.617 197.663 151.187C199.127 150.74 215.953 153.661 223.943 151.737C230.797 150.088 236.498 146.033 239.908 137.065C240.838 134.592 241.44 131.877 241.561 128.905C241.01 130.005 240.321 131.001 239.46 131.912Z" fill="url(#paint0_linear)"/>
<path d="M304.299 89.0313C303.283 88.8595 301.974 88.2926 301.009 88.7908C300.372 89.1172 299.873 89.5982 299.184 89.8559C295.998 91.0928 293.897 88.3956 291.245 87.2446C289.54 86.5059 287.628 86.9182 285.923 87.4679C284.029 88.0692 276.366 88.7736 274.609 88.8595C270.149 89.0828 271.578 82.2797 269.494 78.8781C262.64 77.6756 236.98 74.9784 220.792 72.453C217.003 71.8689 210.494 69.5668 207.204 67.9863C205.138 66.9899 203.347 65.9934 201.986 65.186C201.538 64.9283 201.056 65.4952 201.418 65.8904C202.572 67.1788 204.104 68.8796 205.723 70.6663C209.925 75.322 214.678 80.5961 214.678 80.5961L207.996 70.735C211.716 72.8996 219.328 74.3084 223.323 74.8237C232.881 76.0435 262.588 79.823 267.875 80.493C269.012 83.173 268.306 86.2654 269.649 88.8767C270.683 90.8867 272.663 91.6082 274.833 91.488C277.674 91.3333 280.499 90.629 283.358 90.4228C286.681 90.1823 290.005 90.2338 293.329 90.5259C294.913 91.3677 296.618 92.0205 298.375 91.9003C298.977 91.8659 299.597 91.7285 300.2 91.488C300.82 91.2303 301.836 88.9454 303.059 89.4779C303.197 89.5467 304.781 90.3369 306.245 90.1479C307.037 90.0449 308.57 89.77 308.931 88.3956C307.743 89.3749 305.677 89.2718 304.299 89.0313Z" fill="url(#paint1_linear)"/>
<path d="M190.206 86.3513C190.206 86.3513 183.748 70.7178 182.061 60.6678C181.268 55.9262 183.731 53.0229 184.403 52.4559C192.738 45.3779 204.948 48.539 210.631 49.7072C214.833 50.5834 218.656 51.7172 221.877 52.8339C228.283 55.0672 281.101 76.6791 281.101 76.6791L299.046 84.3069L303.661 86.4543L306.417 87.3305L308.707 87.7256C308.707 87.7256 308.501 87.8974 307.467 88.0177C306.468 88.1379 303.92 87.1931 303.92 87.1931L278.26 76.3184L263.742 70.7522C263.742 70.7522 228.524 57.3521 222.91 55.2734C217.296 53.1947 198.748 48.0751 188.984 51.1846C187.64 51.6141 182.887 54.2598 183.611 61.7501C184.472 70.6491 190.964 84.7192 190.206 86.3513Z" fill="#F4DCCB"/>
<path d="M217.021 83.3964L235.31 108.204C235.31 108.204 241.458 118.975 241.578 126.861C241.596 127.617 239.959 129.919 239.891 128.733C239.753 126.156 239.15 121.123 236.791 115.127C235.516 111.829 217.021 83.3964 217.021 83.3964Z" fill="#F4DCCB"/>
<path d="M224.426 49.7415C222.497 50.1023 215.298 49.209 208.255 48.2641C205.396 47.869 198.921 47.4738 194.547 47.9377C187.193 48.7279 180.27 52.2326 179.857 58.3142C179.667 61.0629 184.748 80.4758 187.124 86.7979C193.083 102.689 195.477 111.245 195.7 115.127C195.873 118.116 194.495 117.876 194.03 118.924C192.824 121.724 194.168 122.978 196.114 123.133C198.043 123.287 207.704 129.541 208.565 131.035C208.72 131.31 209.15 131.07 208.978 130.795C206.998 127.393 197.061 105.73 196.975 105.713C192.566 93.7213 188.381 81.6441 184.438 69.4981C183.714 67.2476 182.784 64.3098 182.457 61.355C182.044 57.7816 182.474 54.2082 185.126 51.9062C187.245 50.068 192.514 47.8861 201.9 48.8826C216.263 50.4116 220.362 52.5762 221.154 52.559C221.223 52.5418 224.546 49.7244 224.426 49.7415Z" fill="#DD9868"/>
<path d="M224.873 140.158C218.691 138.44 212.129 133.939 207.445 126.431C204.621 121.913 201.728 115.35 199.282 110.609C199.248 110.557 193.341 113.804 192.428 114.234C190.051 115.299 187.468 116.295 185.471 116.776C185.316 116.811 184.454 117.051 184.265 117.326C183.869 117.893 181.458 127.565 180.924 127.617C176.412 128.098 166.458 126.844 159.104 127.72C167.319 140.192 179.133 150.105 193.065 155.963C193.496 155.843 196.234 151.634 197.646 151.204C198.387 150.981 211.096 154.073 214.11 153.816C219.328 153.352 227.233 152.08 231.521 149.126C235.774 146.188 238.272 142.133 239.701 138.251C239.787 138.01 239.494 137.821 239.305 137.993C236.016 140.965 230.608 141.755 224.873 140.158Z" fill="#1A74FC"/>
<path d="M236.067 140.347C234.569 143.594 232.244 146.789 228.713 149.229C224.46 152.166 216.607 153.438 211.389 153.919C212.543 153.867 213.507 153.816 214.11 153.764C219.328 153.3 227.232 152.029 231.521 149.074C235.774 146.136 238.271 142.082 239.701 138.199C239.752 138.045 238.909 138.921 237.669 139.608C237.066 139.952 236.101 140.295 236.067 140.347Z" fill="#0E2185"/>
<defs>
<linearGradient id="paint0_linear" x1="159.275" y1="77.9925" x2="308.93" y2="77.9925" gradientUnits="userSpaceOnUse">
<stop offset="0.2186" stop-color="#E8A674"/>
<stop offset="1" stop-color="#ECC19C"/>
</linearGradient>
<linearGradient id="paint1_linear" x1="151.229" y1="78.5195" x2="308.93" y2="78.5195" gradientUnits="userSpaceOnUse">
<stop offset="0.7211" stop-color="#E8A674"/>
<stop offset="1" stop-color="#ECC19C"/>
</linearGradient>
</defs>
</svg>
