<svg width="106" height="123" viewBox="0 0 106 123" fill="none" xmlns="http://www.w3.org/2000/svg">
<g clip-path="url(#clip0)">
<path d="M62.7715 52.9592L84.8186 29.5994C86.7008 27.4653 86.6675 24.2364 84.6439 22.3042C83.6322 21.3381 82.2583 20.8471 80.9411 20.8853C79.6238 20.9236 78.2764 21.5379 77.2255 22.6082L43.6189 57.7408L33.3433 30.4751C32.5148 28.9063 30.6233 26.0633 26.9175 27.277C22.9719 28.5641 22.3617 31.5241 23.1503 34.1779L28.5516 51.4754C29.1629 55.9042 26.7659 64.9775 27.9189 70.0099C27.9556 77.0437 23.4006 82.242 21.5086 84.8852C20.5445 85.9087 20.1832 87.335 20.3938 88.7889C20.922 91.5831 22.7081 96.4423 28.9371 102.433C34.8288 108.103 39.6453 110.153 42.5409 110.887C44.3538 111.365 46.1403 110.738 47.2062 109.38L47.2266 109.313C48.4404 107.707 49.7666 106.209 51.2053 104.817C55.0927 101.099 58.486 98.7657 63.5941 95.5645C65.4568 94.4486 67.4416 92.9309 69.2627 90.9976L89.3816 69.6849C91.4169 67.5242 91.6084 64.51 89.2016 62.1686C88.0314 61.008 86.7035 60.6041 85.4987 60.7497C84.2275 60.8751 82.9925 61.5968 82.008 62.6872L77.7435 67.1691L84.579 59.9579C85.5635 58.8674 86.124 57.5017 86.0922 56.1753C86.0604 54.8489 85.5232 53.5151 84.5318 52.482C82.4419 50.5296 79.1488 50.6252 77.1134 52.786L70.2779 59.9972L74.1547 55.8363L79.3834 50.3308C81.4187 48.1701 81.3393 44.8541 79.3362 42.8549C77.2462 40.9025 73.9531 40.9982 71.9178 43.1589L62.7715 52.9592Z" fill="white"/>
<path d="M41.3773 111.85C38.2569 110.901 33.5883 108.603 28.0798 103.343C21.7384 97.2448 19.7275 92.1708 19.1683 89.0015C18.8604 87.1522 19.3438 85.3241 20.5426 84.0062C20.6904 83.7586 20.925 83.4642 21.1393 83.2368C23.2048 80.5 26.6116 75.9766 26.6474 70.1354C26.0271 67.1669 26.4373 63.1951 26.8935 59.3105C27.2177 56.3367 27.5473 53.584 27.3057 51.7549L21.8637 34.5914C20.9114 31.5219 21.72 27.6713 26.4924 26.0505C29.8051 24.9367 32.7166 26.3343 34.4709 29.8671C34.4709 29.8671 34.5169 29.9543 34.4965 30.0212L44.0251 55.4504L76.2595 21.7292C77.4379 20.4783 79.0456 19.7237 80.8223 19.6057C82.5786 19.5547 84.218 20.1265 85.4343 21.3742C87.9535 23.823 88.0488 27.8022 85.7177 30.4582L76.3979 40.352C77.8072 40.488 79.074 41.0928 80.1521 42.0791C81.3887 43.2599 82.1101 44.9423 82.086 46.6907C82.0921 47.863 81.8327 48.9545 81.3076 49.9652C82.8037 50.0545 84.2236 50.6327 85.3478 51.7061C86.5844 52.8869 87.3261 54.5024 87.302 56.2508C87.3081 57.4231 87.0487 58.5146 86.4573 59.5051C87.7338 59.6008 89.0005 60.2055 90.0583 61.2588C91.4737 62.5671 92.1951 64.2496 92.171 65.9979C92.1673 67.6793 91.459 69.2927 90.2603 70.6106L70.1414 91.9233C68.4478 93.6759 66.509 95.2808 64.1922 96.6975C59.0177 99.8785 55.7978 102.118 51.9972 105.79C50.6657 107.067 49.3395 108.566 48.2124 110.125C46.7844 111.959 44.4313 112.779 42.22 112.18C41.9748 112.032 41.7093 111.951 41.3773 111.85ZM29.5579 28.3728C28.562 28.0699 27.7555 28.3367 27.3421 28.5035C23.8763 29.6439 23.8017 32.0353 24.3495 33.8113L29.7508 51.1087C29.7969 51.1959 29.7765 51.2628 29.7561 51.3298C30.049 53.4671 29.7044 56.5078 29.4058 59.6357C29.0107 63.3195 28.5545 67.2041 29.1642 69.7304C29.2102 69.8176 29.1899 69.8845 29.2155 70.0386C29.2672 76.7844 25.4116 81.8296 23.1779 84.8809C22.9433 85.1753 22.7087 85.4697 22.5608 85.7174C22.5404 85.7843 22.4537 85.8311 22.4333 85.8981C21.7906 86.5804 21.4851 87.5848 21.6647 88.6635C22.0496 90.9752 23.6772 95.6399 29.8398 101.611C35.5067 107.065 40.0576 109.035 42.8868 109.749C44.1686 110.066 45.4549 109.652 46.1791 108.702C47.5001 106.982 48.8466 105.417 50.2853 104.026C54.193 100.24 57.6067 97.84 62.9344 94.6324C64.9909 93.356 66.8022 91.9318 68.3223 90.2728L88.482 68.8261C89.2522 67.9631 89.6905 66.9991 89.6897 66.0479C89.7092 65.0297 89.2233 64.0041 88.37 63.2325C87.537 62.3939 86.6279 62.0442 85.663 62.1165C84.7645 62.209 83.7898 62.7903 82.9328 63.7001L78.6682 68.182C78.1529 68.6837 77.3412 68.7294 76.8455 68.2128C76.3498 67.6963 76.3082 66.879 76.8235 66.3773L83.5926 59.1459C84.3425 58.3498 84.7347 57.2987 84.7543 56.2805C84.7075 55.2422 84.3543 54.2569 83.5674 53.5055C82.8469 52.7743 81.8714 52.4044 80.7736 52.4363C79.7423 52.4884 78.742 52.9156 77.9921 53.7117L71.1566 60.9229C70.6413 61.4246 69.8295 61.4703 69.3338 60.9537C68.8381 60.4372 68.7966 59.6199 69.3118 59.1182L78.397 49.5188C79.1469 48.7228 79.5391 47.6717 79.5587 46.6535C79.5118 45.6151 79.1587 44.6299 78.3718 43.8784C77.6512 43.1472 76.6757 42.7773 75.578 42.8092C74.5467 42.8613 73.6331 43.2418 72.9036 43.9709L63.737 53.8381C63.2217 54.3398 62.41 54.3855 61.9143 53.8689C61.4186 53.3524 61.377 52.5351 61.8923 52.0334L70.9774 42.434C71.0642 42.3873 71.0845 42.3203 71.1713 42.2736L83.919 28.7407C85.3524 27.1284 85.2941 24.6966 83.7663 23.2809C83.0458 22.5497 82.0703 22.1799 80.9725 22.2117C79.9412 22.2638 78.9409 22.6911 78.191 23.4871L44.5639 58.6867C44.2426 59.0278 43.8495 59.1277 43.3644 59.0533C42.9457 58.9991 42.6084 58.6771 42.4447 58.2615L32.2355 31.016C31.361 29.3602 30.421 28.6353 29.5579 28.3728Z" fill="#333333"/>
<path d="M40.9306 13.3977C40.665 13.3169 40.4862 13.1894 40.2614 12.9747C39.8525 12.4114 39.9437 11.6344 40.5253 11.153L40.6325 11.0393C44.5358 7.98366 49.3596 6.67109 54.1646 7.32792C59.0564 7.93799 63.3116 10.4027 66.3274 14.3192C66.7363 14.8825 66.6451 15.6594 66.0634 16.1409C65.5021 16.5554 64.7311 16.4672 64.2558 15.8837C61.7154 12.5507 58.017 10.4016 53.8298 9.85957C49.6426 9.31752 45.5182 10.477 42.1965 13.0512L42.0894 13.1649C41.722 13.4189 41.2626 13.4986 40.9306 13.3977Z" fill="#333333"/>
<path d="M45.5758 18.3951L38.1424 18.9871L30.7089 19.579L33.93 12.8046L37.2378 5.98341L41.4298 12.2328L45.5758 18.3951Z" fill="white"/>
<path d="M30.3427 20.7843C30.0771 20.7035 29.8319 20.5557 29.6275 20.2741C29.377 19.9053 29.3204 19.376 29.5089 18.9945L36.1042 5.41904C36.3132 4.97053 36.6806 4.71651 37.186 4.72395C37.6251 4.7112 38.0695 4.91951 38.32 5.28832L46.7244 17.7202C46.9749 18.089 47.0315 18.6183 46.8429 18.9998C46.634 19.4483 46.2666 19.7023 45.7611 19.6949L30.7614 20.8385C30.6083 20.865 30.4755 20.8246 30.3427 20.7843ZM37.3884 8.58944L32.8269 18.1017L43.2879 17.3333L37.3884 8.58944Z" fill="#333333"/>
</g>
<defs>
<clipPath id="clip0">
<rect width="78" height="104" fill="white" transform="translate(31.0762 0.0124817) rotate(16.9177)"/>
</clipPath>
</defs>
</svg>
